M48
METRIC,TZ
T1C0.305
T2C0.800
T3C1.200
%
G90
G05
T1
X-18543Y9590
X-18543Y8320
X-18543Y6796
X-18543Y446
X-18543Y-2856
X-14985Y11914
X-14782Y27129
X-14782Y25656
X-14098Y700
X-14098Y-189
X-14071Y15445
X-14042Y-18054
X-13715Y17604
X-13664Y1754
X-13463Y-8825
X-13463Y-10095
X-13463Y-11238
X-13284Y2262
X-13209Y700
X-13106Y23166
X-12954Y-4507
X-12953Y17578
X-12928Y16766
X-12903Y2770
X-12192Y-10095
X-12192Y-11238
X-11939Y12892
X-11939Y12003
X-11685Y-4507
X-11201Y22150
X-10059Y8803
X-9902Y-2463
X-9891Y-10053
X-9475Y8269
X-9399Y6288
X-9399Y5272
X-9321Y13108
X-9296Y19077
X-8941Y-2043
X-8891Y7838
X-8822Y2767
X-8661Y19991
X-8586Y13146
X-8412Y-5313
X-8201Y2267
X-8180Y20953
X-8027Y13553
X-7975Y17604
X-7900Y-2018
X-7691Y1767
X-7494Y3621
X-7365Y25046
X-7365Y18213
X-7341Y13578
X-7162Y20449
X-6909Y9946
X-6664Y22401
X-6605Y3621
X-6427Y12841
X-6400Y17959
X-6252Y-11893
X-6146Y19966
X-5664Y19433
X-5625Y12968
X-5511Y-6806
X-5392Y-11213
X-5334Y-8698
X-5334Y-9714
X-5105Y18950
X-5054Y25046
X-4649Y21918
X-4571Y18442
X-4319Y-17207
X-4319Y-18350
X-4191Y-8698
X-4191Y-9714
X-4139Y19509
X-3912Y12968
X-3659Y21461
X-3581Y24309
X-3504Y6783
X-3428Y17426
X-3049Y-17207
X-3049Y-18350
X-2971Y5717
X-2702Y-8513
X-2666Y25071
X-2641Y26748
X-2442Y3987
X-2212Y-9163
X-1902Y4627
X-1432Y5027
X-1311Y-11853
X-940Y-2551
X-636Y-8825
X-382Y-7047
X254Y8168
X331Y24360
X355Y7253
X584Y9692
X863Y7609
X1092Y10174
X1703Y20677
X1703Y19306
X1778Y4764
X2082Y7711
X2159Y-443
X2179Y3267
X2362Y5272
X2413Y-2551
X3023Y20652
X3023Y19280
X4063Y12638
X4063Y11749
X4953Y12638
X5005Y-7949
X5079Y-8952
X5334Y8269
X5511Y-1738
X5526Y-733
X6058Y-2233
X6070Y-1230
X6249Y687
X6603Y-5269
X6603Y-6158
X7493Y-5269
X7493Y-6158
X7746Y6669
X7824Y25732
X7849Y27205
X8814Y-10957
X10160Y10733
X10160Y9844
X10160Y8955
X10414Y-9841
X10414Y-11111
X10515Y20309
T3
X-20269Y-7390
X-20269Y-9930
X-20269Y-12470
X-20269Y-15010
X-20269Y-17550
X-20269Y-20090
X-17856Y-17423
X-17856Y-19963
X9779Y17477
X9779Y15115
X12319Y17477
X12319Y15115
X12371Y12765
X12371Y10225
X12371Y7685
X12371Y5145
X12371Y2605
X12371Y65
X12371Y-2195
X12371Y-4735
X12371Y-7275
X12371Y-9815
X12371Y-12355
X12371Y-14895
X12371Y-17435
X12371Y-19975
T2
G00X-7976Y-14041
M15
G01X-7976Y-14341
M16
G05
G00X-7976Y-18221
M15
G01X-7976Y-18521
M16
G05
G00X664Y-14041
M15
G01X664Y-14341
M16
G05
G00X664Y-18221
M15
G01X664Y-18521
M16
G05
T0
M30
