%TF.GenerationSoftware,KiCad,Pcbnew,(5.99.0-12605-g2e120528c8)*%
%TF.CreationDate,2021-09-29T20:44:58+08:00*%
%TF.ProjectId,openmv4,6f70656e-6d76-4342-9e6b-696361645f70,rev?*%
%TF.SameCoordinates,Original*%
%TF.FileFunction,Soldermask,Top*%
%TF.FilePolarity,Negative*%
%FSLAX46Y46*%
G04 Gerber Fmt 4.6, Leading zero omitted, Abs format (unit mm)*
G04 Created by KiCad (PCBNEW (5.99.0-12605-g2e120528c8)) date 2021-09-29 20:44:58*
%MOMM*%
%LPD*%
G01*
G04 APERTURE LIST*
G04 Aperture macros list*
%AMRoundRect*
0 Rectangle with rounded corners*
0 $1 Rounding radius*
0 $2 $3 $4 $5 $6 $7 $8 $9 X,Y pos of 4 corners*
0 Add a 4 corners polygon primitive as box body*
4,1,4,$2,$3,$4,$5,$6,$7,$8,$9,$2,$3,0*
0 Add four circle primitives for the rounded corners*
1,1,$1+$1,$2,$3*
1,1,$1+$1,$4,$5*
1,1,$1+$1,$6,$7*
1,1,$1+$1,$8,$9*
0 Add four rect primitives between the rounded corners*
20,1,$1+$1,$2,$3,$4,$5,0*
20,1,$1+$1,$4,$5,$6,$7,0*
20,1,$1+$1,$6,$7,$8,$9,0*
20,1,$1+$1,$8,$9,$2,$3,0*%
G04 Aperture macros list end*
%TA.AperFunction,Profile*%
%ADD10C,0.100000*%
%TD*%
%TA.AperFunction,Profile*%
%ADD11C,0.300000*%
%TD*%
%ADD12RoundRect,0.250000X0.450000X-0.262500X0.450000X0.262500X-0.450000X0.262500X-0.450000X-0.262500X0*%
%ADD13RoundRect,0.250000X0.250000X0.475000X-0.250000X0.475000X-0.250000X-0.475000X0.250000X-0.475000X0*%
%ADD14RoundRect,0.250000X-0.250000X-0.475000X0.250000X-0.475000X0.250000X0.475000X-0.250000X0.475000X0*%
%ADD15RoundRect,0.150000X-0.512500X-0.150000X0.512500X-0.150000X0.512500X0.150000X-0.512500X0.150000X0*%
%ADD16R,1.800000X1.800000*%
%ADD17C,1.800000*%
%ADD18R,2.000000X2.000000*%
%ADD19R,1.380010X2.000000*%
%ADD20R,1.100000X1.800000*%
%ADD21R,0.300000X0.900000*%
%ADD22RoundRect,0.250000X-0.475000X0.250000X-0.475000X-0.250000X0.475000X-0.250000X0.475000X0.250000X0*%
%ADD23RoundRect,0.250000X0.475000X-0.250000X0.475000X0.250000X-0.475000X0.250000X-0.475000X-0.250000X0*%
%ADD24RoundRect,0.250000X-0.450000X0.262500X-0.450000X-0.262500X0.450000X-0.262500X0.450000X0.262500X0*%
%ADD25RoundRect,0.243750X0.243750X0.456250X-0.243750X0.456250X-0.243750X-0.456250X0.243750X-0.456250X0*%
%ADD26RoundRect,0.250000X0.262500X0.450000X-0.262500X0.450000X-0.262500X-0.450000X0.262500X-0.450000X0*%
%ADD27RoundRect,0.300000X-0.300000X-0.600000X0.300000X-0.600000X0.300000X0.600000X-0.300000X0.600000X0*%
%ADD28RoundRect,0.300000X-0.300000X-0.700000X0.300000X-0.700000X0.300000X0.700000X-0.300000X0.700000X0*%
%ADD29R,0.300000X1.300000*%
%ADD30R,1.400000X1.200000*%
%ADD31R,0.800000X0.864010*%
%ADD32RoundRect,0.250000X-0.262500X-0.450000X0.262500X-0.450000X0.262500X0.450000X-0.262500X0.450000X0*%
%ADD33RoundRect,0.075000X-0.725000X-0.075000X0.725000X-0.075000X0.725000X0.075000X-0.725000X0.075000X0*%
%ADD34RoundRect,0.075000X-0.075000X-0.725000X0.075000X-0.725000X0.075000X0.725000X-0.075000X0.725000X0*%
%ADD35RoundRect,0.150000X0.512500X0.150000X-0.512500X0.150000X-0.512500X-0.150000X0.512500X-0.150000X0*%
G04 APERTURE END LIST*
D10*
X134716772Y-68757800D02*
G75*
G03*
X134716772Y-68757800I-1635886J0D01*
G01*
D11*
X100634800Y-66382800D02*
X135634800Y-66382800D01*
X135634800Y-116382800D02*
X135634800Y-66382800D01*
X100634800Y-116382800D02*
X100634800Y-66382800D01*
X100634800Y-116382800D02*
X135634800Y-116382800D01*
D10*
X104927400Y-68757800D02*
G75*
G03*
X104927400Y-68757800I-1635886J0D01*
G01*
D12*
%TO.C,R11*%
X115138200Y-80623100D03*
X115138200Y-78798100D03*
%TD*%
D13*
%TO.C,C18*%
X106537800Y-102793800D03*
X104637800Y-102793800D03*
%TD*%
D14*
%TO.C,C1*%
X104764800Y-96443800D03*
X106664800Y-96443800D03*
%TD*%
D15*
%TO.C,U5*%
X104069300Y-104637800D03*
X104069300Y-105587800D03*
X104069300Y-106537800D03*
X106344300Y-106537800D03*
X106344300Y-104637800D03*
%TD*%
D16*
%TO.C,J2*%
X134416800Y-95084800D03*
D17*
X134416800Y-92544800D03*
X134416800Y-90004800D03*
X134416800Y-87464800D03*
X134416800Y-84924800D03*
X134416800Y-82384800D03*
%TD*%
D16*
%TO.C,J5*%
X134364800Y-77673200D03*
D17*
X131824800Y-77673200D03*
%TD*%
D13*
%TO.C,C9*%
X106664800Y-98475800D03*
X104764800Y-98475800D03*
%TD*%
D18*
%TO.C,D5*%
X111306610Y-110722950D03*
X111306610Y-115123090D03*
%TD*%
D19*
%TO.C,SW1*%
X125631780Y-115000780D03*
X125631780Y-107000800D03*
%TD*%
D20*
%TO.C,F1*%
X126035410Y-69195090D03*
X110235390Y-69195090D03*
D21*
X123885380Y-71895030D03*
X123385380Y-71895030D03*
X122885380Y-71895030D03*
X122385380Y-71895030D03*
X121885380Y-71895030D03*
X121385380Y-71895030D03*
X120885380Y-71895030D03*
X120385380Y-71895030D03*
X119885390Y-71895030D03*
X119385390Y-71895030D03*
X118885390Y-71895030D03*
X118385390Y-71895030D03*
X117885390Y-71895030D03*
X117385360Y-71895030D03*
X116885370Y-71895030D03*
X116385370Y-71895030D03*
X115885370Y-71895030D03*
X115385370Y-71895030D03*
X114885370Y-71895030D03*
X114385370Y-71895030D03*
X113885370Y-71895030D03*
X113385370Y-71895030D03*
X112885370Y-71895030D03*
X112385370Y-71895030D03*
%TD*%
D16*
%TO.C,J4*%
X104190800Y-115112800D03*
D17*
X104190800Y-112572800D03*
%TD*%
D22*
%TO.C,C2*%
X111150400Y-78780600D03*
X111150400Y-80680600D03*
%TD*%
D13*
%TO.C,C20*%
X107858600Y-72009000D03*
X105958600Y-72009000D03*
%TD*%
D23*
%TO.C,C5*%
X112572800Y-103870800D03*
X112572800Y-101970800D03*
%TD*%
D24*
%TO.C,R7*%
X119532400Y-78798100D03*
X119532400Y-80623100D03*
%TD*%
D22*
%TO.C,C12*%
X123190000Y-101970800D03*
X123190000Y-103870800D03*
%TD*%
D12*
%TO.C,R13*%
X129082800Y-108532300D03*
X129082800Y-106707300D03*
%TD*%
D16*
%TO.C,J6*%
X134364800Y-80035400D03*
D17*
X131824800Y-80035400D03*
%TD*%
D25*
%TO.C,D2*%
X103426500Y-79705200D03*
X101551500Y-79705200D03*
%TD*%
D23*
%TO.C,C4*%
X125323600Y-103870800D03*
X125323600Y-101970800D03*
%TD*%
D26*
%TO.C,R3*%
X106957500Y-79705200D03*
X105132500Y-79705200D03*
%TD*%
%TO.C,R2*%
X106957500Y-77546200D03*
X105132500Y-77546200D03*
%TD*%
D27*
%TO.C,U8*%
X122710760Y-113521270D03*
X114070800Y-113521270D03*
D28*
X122710760Y-109341280D03*
X114070800Y-109341280D03*
D29*
X114990790Y-108272790D03*
X115830770Y-108272760D03*
X117140850Y-108272810D03*
X118140850Y-108272810D03*
X118640720Y-108272790D03*
X119640460Y-108272810D03*
X120940760Y-108272690D03*
X121792400Y-108272690D03*
X121440690Y-108272710D03*
X120630760Y-108272740D03*
X120140840Y-108272810D03*
X119140840Y-108272810D03*
X117640720Y-108272790D03*
X116640720Y-108272810D03*
X116150680Y-108272690D03*
X115340800Y-108272790D03*
%TD*%
D13*
%TO.C,C13*%
X106664800Y-88823800D03*
X104764800Y-88823800D03*
%TD*%
D14*
%TO.C,C19*%
X128488400Y-71958200D03*
X130388400Y-71958200D03*
%TD*%
%TO.C,C7*%
X104764800Y-84759800D03*
X106664800Y-84759800D03*
%TD*%
D13*
%TO.C,C16*%
X105775800Y-108381800D03*
X103875800Y-108381800D03*
%TD*%
D22*
%TO.C,C8*%
X110464600Y-101970800D03*
X110464600Y-103870800D03*
%TD*%
%TO.C,C14*%
X114681000Y-101970800D03*
X114681000Y-103870800D03*
%TD*%
D25*
%TO.C,D3*%
X103426500Y-81864200D03*
X101551500Y-81864200D03*
%TD*%
D14*
%TO.C,C10*%
X128798600Y-86512400D03*
X130698600Y-86512400D03*
%TD*%
D24*
%TO.C,R17*%
X108184800Y-73910300D03*
X108184800Y-75735300D03*
%TD*%
D26*
%TO.C,R9*%
X130604900Y-89179400D03*
X128779900Y-89179400D03*
%TD*%
D12*
%TO.C,R1*%
X117119400Y-80617700D03*
X117119400Y-78792700D03*
%TD*%
D30*
%TO.C,Y1*%
X104233820Y-92492530D03*
X104233880Y-90742620D03*
X106433770Y-92492530D03*
X106433720Y-90742570D03*
%TD*%
D24*
%TO.C,R6*%
X123494800Y-78798100D03*
X123494800Y-80623100D03*
%TD*%
%TO.C,R5*%
X125501400Y-78798100D03*
X125501400Y-80623100D03*
%TD*%
D14*
%TO.C,C11*%
X104764800Y-94411800D03*
X106664800Y-94411800D03*
%TD*%
D26*
%TO.C,R4*%
X106957500Y-81864200D03*
X105132500Y-81864200D03*
%TD*%
D15*
%TO.C,U7*%
X101919800Y-73827600D03*
X101919800Y-74777600D03*
X101919800Y-75727600D03*
X104194800Y-75727600D03*
X104194800Y-73827600D03*
%TD*%
D12*
%TO.C,R12*%
X113157000Y-80623100D03*
X113157000Y-78798100D03*
%TD*%
D31*
%TO.C,L1*%
X106781960Y-100338920D03*
X105382160Y-100338920D03*
%TD*%
D22*
%TO.C,C17*%
X129082800Y-110225800D03*
X129082800Y-112125800D03*
%TD*%
D16*
%TO.C,J1*%
X101777800Y-102539800D03*
D17*
X101777800Y-105079800D03*
X101777800Y-107619800D03*
X101777800Y-110159800D03*
X101777800Y-112699800D03*
X101777800Y-115239800D03*
%TD*%
D32*
%TO.C,R8*%
X128779900Y-91135200D03*
X130604900Y-91135200D03*
%TD*%
D24*
%TO.C,R16*%
X106174800Y-73910300D03*
X106174800Y-75735300D03*
%TD*%
%TO.C,R15*%
X128141800Y-73839700D03*
X128141800Y-75664700D03*
%TD*%
D33*
%TO.C,U2*%
X110459800Y-85382800D03*
X110459800Y-85882800D03*
X110459800Y-86382800D03*
X110459800Y-86882800D03*
X110459800Y-87382800D03*
X110459800Y-87882800D03*
X110459800Y-88382800D03*
X110459800Y-88882800D03*
X110459800Y-89382800D03*
X110459800Y-89882800D03*
X110459800Y-90382800D03*
X110459800Y-90882800D03*
X110459800Y-91382800D03*
X110459800Y-91882800D03*
X110459800Y-92382800D03*
X110459800Y-92882800D03*
X110459800Y-93382800D03*
X110459800Y-93882800D03*
X110459800Y-94382800D03*
X110459800Y-94882800D03*
X110459800Y-95382800D03*
X110459800Y-95882800D03*
X110459800Y-96382800D03*
X110459800Y-96882800D03*
X110459800Y-97382800D03*
D34*
X112134800Y-99057800D03*
X112634800Y-99057800D03*
X113134800Y-99057800D03*
X113634800Y-99057800D03*
X114134800Y-99057800D03*
X114634800Y-99057800D03*
X115134800Y-99057800D03*
X115634800Y-99057800D03*
X116134800Y-99057800D03*
X116634800Y-99057800D03*
X117134800Y-99057800D03*
X117634800Y-99057800D03*
X118134800Y-99057800D03*
X118634800Y-99057800D03*
X119134800Y-99057800D03*
X119634800Y-99057800D03*
X120134800Y-99057800D03*
X120634800Y-99057800D03*
X121134800Y-99057800D03*
X121634800Y-99057800D03*
X122134800Y-99057800D03*
X122634800Y-99057800D03*
X123134800Y-99057800D03*
X123634800Y-99057800D03*
X124134800Y-99057800D03*
D33*
X125809800Y-97382800D03*
X125809800Y-96882800D03*
X125809800Y-96382800D03*
X125809800Y-95882800D03*
X125809800Y-95382800D03*
X125809800Y-94882800D03*
X125809800Y-94382800D03*
X125809800Y-93882800D03*
X125809800Y-93382800D03*
X125809800Y-92882800D03*
X125809800Y-92382800D03*
X125809800Y-91882800D03*
X125809800Y-91382800D03*
X125809800Y-90882800D03*
X125809800Y-90382800D03*
X125809800Y-89882800D03*
X125809800Y-89382800D03*
X125809800Y-88882800D03*
X125809800Y-88382800D03*
X125809800Y-87882800D03*
X125809800Y-87382800D03*
X125809800Y-86882800D03*
X125809800Y-86382800D03*
X125809800Y-85882800D03*
X125809800Y-85382800D03*
D34*
X124134800Y-83707800D03*
X123634800Y-83707800D03*
X123134800Y-83707800D03*
X122634800Y-83707800D03*
X122134800Y-83707800D03*
X121634800Y-83707800D03*
X121134800Y-83707800D03*
X120634800Y-83707800D03*
X120134800Y-83707800D03*
X119634800Y-83707800D03*
X119134800Y-83707800D03*
X118634800Y-83707800D03*
X118134800Y-83707800D03*
X117634800Y-83707800D03*
X117134800Y-83707800D03*
X116634800Y-83707800D03*
X116134800Y-83707800D03*
X115634800Y-83707800D03*
X115134800Y-83707800D03*
X114634800Y-83707800D03*
X114134800Y-83707800D03*
X113634800Y-83707800D03*
X113134800Y-83707800D03*
X112634800Y-83707800D03*
X112134800Y-83707800D03*
%TD*%
D24*
%TO.C,R10*%
X121513600Y-78798100D03*
X121513600Y-80623100D03*
%TD*%
D14*
%TO.C,C6*%
X104764800Y-86791800D03*
X106664800Y-86791800D03*
%TD*%
D16*
%TO.C,J3*%
X134416800Y-97345500D03*
D17*
X134416800Y-99885500D03*
X134416800Y-102425500D03*
X134416800Y-104965500D03*
X134416800Y-107505500D03*
X134416800Y-110045500D03*
X134416800Y-112585500D03*
X134416800Y-115125500D03*
%TD*%
D13*
%TO.C,C3*%
X130698600Y-84480400D03*
X128798600Y-84480400D03*
%TD*%
D24*
%TO.C,R14*%
X130124800Y-73840300D03*
X130124800Y-75665300D03*
%TD*%
D35*
%TO.C,U6*%
X134359300Y-75714800D03*
X134359300Y-74764800D03*
X134359300Y-73814800D03*
X132084300Y-73814800D03*
X132084300Y-75714800D03*
%TD*%
D18*
%TO.C,D4*%
X108004610Y-110722950D03*
X108004610Y-115123090D03*
%TD*%
D13*
%TO.C,C15*%
X105775800Y-110413800D03*
X103875800Y-110413800D03*
%TD*%
D25*
%TO.C,D1*%
X103426500Y-77546200D03*
X101551500Y-77546200D03*
%TD*%
M02*
