%TF.GenerationSoftware,KiCad,Pcbnew,(5.99.0-12605-g2e120528c8)*%
%TF.CreationDate,2021-09-29T20:44:58+08:00*%
%TF.ProjectId,openmv4,6f70656e-6d76-4342-9e6b-696361645f70,rev?*%
%TF.SameCoordinates,Original*%
%TF.FileFunction,Legend,Bot*%
%TF.FilePolarity,Positive*%
%FSLAX46Y46*%
G04 Gerber Fmt 4.6, Leading zero omitted, Abs format (unit mm)*
G04 Created by KiCad (PCBNEW (5.99.0-12605-g2e120528c8)) date 2021-09-29 20:44:58*
%MOMM*%
%LPD*%
G01*
G04 APERTURE LIST*
G04 Aperture macros list*
%AMRoundRect*
0 Rectangle with rounded corners*
0 $1 Rounding radius*
0 $2 $3 $4 $5 $6 $7 $8 $9 X,Y pos of 4 corners*
0 Add a 4 corners polygon primitive as box body*
4,1,4,$2,$3,$4,$5,$6,$7,$8,$9,$2,$3,0*
0 Add four circle primitives for the rounded corners*
1,1,$1+$1,$2,$3*
1,1,$1+$1,$4,$5*
1,1,$1+$1,$6,$7*
1,1,$1+$1,$8,$9*
0 Add four rect primitives between the rounded corners*
20,1,$1+$1,$2,$3,$4,$5,0*
20,1,$1+$1,$4,$5,$6,$7,0*
20,1,$1+$1,$6,$7,$8,$9,0*
20,1,$1+$1,$8,$9,$2,$3,0*%
G04 Aperture macros list end*
%TA.AperFunction,Profile*%
%ADD10C,0.100000*%
%TD*%
%TA.AperFunction,Profile*%
%ADD11C,0.300000*%
%TD*%
%ADD12C,0.150000*%
%ADD13C,0.125000*%
%ADD14C,0.120000*%
%ADD15C,0.304800*%
%ADD16C,0.350000*%
%ADD17O,0.800000X1.100000*%
%ADD18R,1.800000X1.800000*%
%ADD19C,1.800000*%
%ADD20RoundRect,0.300000X-0.300000X-0.600000X0.300000X-0.600000X0.300000X0.600000X-0.300000X0.600000X0*%
%ADD21RoundRect,0.300000X-0.300000X-0.700000X0.300000X-0.700000X0.300000X0.700000X-0.300000X0.700000X0*%
%ADD22R,0.700000X1.600000*%
%ADD23R,1.600000X1.500000*%
%ADD24R,1.200000X2.200000*%
%ADD25R,1.200000X1.500000*%
G04 APERTURE END LIST*
D10*
X134716772Y-68757800D02*
G75*
G03*
X134716772Y-68757800I-1635886J0D01*
G01*
D11*
X100634800Y-66382800D02*
X135634800Y-66382800D01*
X135634800Y-116382800D02*
X135634800Y-66382800D01*
X100634800Y-116382800D02*
X100634800Y-66382800D01*
X100634800Y-116382800D02*
X135634800Y-116382800D01*
D10*
X104927400Y-68757800D02*
G75*
G03*
X104927400Y-68757800I-1635886J0D01*
G01*
D12*
X132078704Y-81884800D02*
X132173942Y-81837180D01*
X132316800Y-81837180D01*
X132459657Y-81884800D01*
X132554895Y-81980038D01*
X132602514Y-82075276D01*
X132650133Y-82265752D01*
X132650133Y-82408609D01*
X132602514Y-82599085D01*
X132554895Y-82694323D01*
X132459657Y-82789561D01*
X132316800Y-82837180D01*
X132221561Y-82837180D01*
X132078704Y-82789561D01*
X132031085Y-82741942D01*
X132031085Y-82408609D01*
X132221561Y-82408609D01*
X131602514Y-82837180D02*
X131602514Y-81837180D01*
X131031085Y-82837180D01*
X131031085Y-81837180D01*
X130554895Y-82837180D02*
X130554895Y-81837180D01*
X130316800Y-81837180D01*
X130173942Y-81884800D01*
X130078704Y-81980038D01*
X130031085Y-82075276D01*
X129983466Y-82265752D01*
X129983466Y-82408609D01*
X130031085Y-82599085D01*
X130078704Y-82694323D01*
X130173942Y-82789561D01*
X130316800Y-82837180D01*
X130554895Y-82837180D01*
X132078704Y-112110800D02*
X132173942Y-112063180D01*
X132316800Y-112063180D01*
X132459657Y-112110800D01*
X132554895Y-112206038D01*
X132602514Y-112301276D01*
X132650133Y-112491752D01*
X132650133Y-112634609D01*
X132602514Y-112825085D01*
X132554895Y-112920323D01*
X132459657Y-113015561D01*
X132316800Y-113063180D01*
X132221561Y-113063180D01*
X132078704Y-113015561D01*
X132031085Y-112967942D01*
X132031085Y-112634609D01*
X132221561Y-112634609D01*
X131602514Y-113063180D02*
X131602514Y-112063180D01*
X131031085Y-113063180D01*
X131031085Y-112063180D01*
X130554895Y-113063180D02*
X130554895Y-112063180D01*
X130316800Y-112063180D01*
X130173942Y-112110800D01*
X130078704Y-112206038D01*
X130031085Y-112301276D01*
X129983466Y-112491752D01*
X129983466Y-112634609D01*
X130031085Y-112825085D01*
X130078704Y-112920323D01*
X130173942Y-113015561D01*
X130316800Y-113063180D01*
X130554895Y-113063180D01*
X108805704Y-109759704D02*
X108348561Y-109759704D01*
X108577133Y-110559704D02*
X108577133Y-109759704D01*
X108081895Y-110559704D02*
X108081895Y-109759704D01*
X107700942Y-110559704D02*
X107700942Y-109759704D01*
X107434276Y-110331133D01*
X107167609Y-109759704D01*
X107167609Y-110559704D01*
X106443800Y-110026371D02*
X106443800Y-110559704D01*
X106634276Y-109721609D02*
X106824752Y-110293038D01*
X106329514Y-110293038D01*
X106215228Y-110635895D02*
X105605704Y-110635895D01*
X104958085Y-110483514D02*
X104996180Y-110521609D01*
X105110466Y-110559704D01*
X105186657Y-110559704D01*
X105300942Y-110521609D01*
X105377133Y-110445419D01*
X105415228Y-110369228D01*
X105453323Y-110216847D01*
X105453323Y-110102561D01*
X105415228Y-109950180D01*
X105377133Y-109873990D01*
X105300942Y-109797800D01*
X105186657Y-109759704D01*
X105110466Y-109759704D01*
X104996180Y-109797800D01*
X104958085Y-109835895D01*
X104615228Y-110559704D02*
X104615228Y-109759704D01*
X104615228Y-110140657D02*
X104158085Y-110140657D01*
X104158085Y-110559704D02*
X104158085Y-109759704D01*
X103358085Y-110559704D02*
X103815228Y-110559704D01*
X103586657Y-110559704D02*
X103586657Y-109759704D01*
X103662847Y-109873990D01*
X103739038Y-109950180D01*
X103815228Y-109988276D01*
X106621466Y-102393657D02*
X106507180Y-102431752D01*
X106469085Y-102469847D01*
X106430990Y-102546038D01*
X106430990Y-102660323D01*
X106469085Y-102736514D01*
X106507180Y-102774609D01*
X106583371Y-102812704D01*
X106888133Y-102812704D01*
X106888133Y-102012704D01*
X106621466Y-102012704D01*
X106545276Y-102050800D01*
X106507180Y-102088895D01*
X106469085Y-102165085D01*
X106469085Y-102241276D01*
X106507180Y-102317466D01*
X106545276Y-102355561D01*
X106621466Y-102393657D01*
X106888133Y-102393657D01*
X105935752Y-102012704D02*
X105783371Y-102012704D01*
X105707180Y-102050800D01*
X105630990Y-102126990D01*
X105592895Y-102279371D01*
X105592895Y-102546038D01*
X105630990Y-102698419D01*
X105707180Y-102774609D01*
X105783371Y-102812704D01*
X105935752Y-102812704D01*
X106011942Y-102774609D01*
X106088133Y-102698419D01*
X106126228Y-102546038D01*
X106126228Y-102279371D01*
X106088133Y-102126990D01*
X106011942Y-102050800D01*
X105935752Y-102012704D01*
X105097657Y-102012704D02*
X104945276Y-102012704D01*
X104869085Y-102050800D01*
X104792895Y-102126990D01*
X104754800Y-102279371D01*
X104754800Y-102546038D01*
X104792895Y-102698419D01*
X104869085Y-102774609D01*
X104945276Y-102812704D01*
X105097657Y-102812704D01*
X105173847Y-102774609D01*
X105250038Y-102698419D01*
X105288133Y-102546038D01*
X105288133Y-102279371D01*
X105250038Y-102126990D01*
X105173847Y-102050800D01*
X105097657Y-102012704D01*
X104526228Y-102012704D02*
X104069085Y-102012704D01*
X104297657Y-102812704D02*
X104297657Y-102012704D01*
X103650038Y-102012704D02*
X103573847Y-102012704D01*
X103497657Y-102050800D01*
X103459561Y-102088895D01*
X103421466Y-102165085D01*
X103383371Y-102317466D01*
X103383371Y-102507942D01*
X103421466Y-102660323D01*
X103459561Y-102736514D01*
X103497657Y-102774609D01*
X103573847Y-102812704D01*
X103650038Y-102812704D01*
X103726228Y-102774609D01*
X103764323Y-102736514D01*
X103802419Y-102660323D01*
X103840514Y-102507942D01*
X103840514Y-102317466D01*
X103802419Y-102165085D01*
X103764323Y-102088895D01*
X103726228Y-102050800D01*
X103650038Y-102012704D01*
X132602514Y-88044180D02*
X132602514Y-87044180D01*
X132031085Y-88044180D01*
X132031085Y-87044180D01*
X130983466Y-88044180D02*
X131316799Y-87567990D01*
X131554895Y-88044180D02*
X131554895Y-87044180D01*
X131173942Y-87044180D01*
X131078704Y-87091800D01*
X131031085Y-87139419D01*
X130983466Y-87234657D01*
X130983466Y-87377514D01*
X131031085Y-87472752D01*
X131078704Y-87520371D01*
X131173942Y-87567990D01*
X131554895Y-87567990D01*
X130602514Y-87996561D02*
X130459657Y-88044180D01*
X130221561Y-88044180D01*
X130126323Y-87996561D01*
X130078704Y-87948942D01*
X130031085Y-87853704D01*
X130031085Y-87758466D01*
X130078704Y-87663228D01*
X130126323Y-87615609D01*
X130221561Y-87567990D01*
X130412037Y-87520371D01*
X130507276Y-87472752D01*
X130554895Y-87425133D01*
X130602514Y-87329895D01*
X130602514Y-87234657D01*
X130554895Y-87139419D01*
X130507276Y-87091800D01*
X130412037Y-87044180D01*
X130173942Y-87044180D01*
X130031085Y-87091800D01*
X129745371Y-87044180D02*
X129173942Y-87044180D01*
X129459657Y-88044180D02*
X129459657Y-87044180D01*
D13*
X108044038Y-114749990D02*
X108282133Y-114749990D01*
X108305942Y-114988085D01*
X108282133Y-114964276D01*
X108234514Y-114940466D01*
X108115466Y-114940466D01*
X108067847Y-114964276D01*
X108044038Y-114988085D01*
X108020228Y-115035704D01*
X108020228Y-115154752D01*
X108044038Y-115202371D01*
X108067847Y-115226180D01*
X108115466Y-115249990D01*
X108234514Y-115249990D01*
X108282133Y-115226180D01*
X108305942Y-115202371D01*
X107877371Y-114749990D02*
X107710704Y-115249990D01*
X107544038Y-114749990D01*
X108329752Y-112360800D02*
X108377371Y-112336990D01*
X108448800Y-112336990D01*
X108520228Y-112360800D01*
X108567847Y-112408419D01*
X108591657Y-112456038D01*
X108615466Y-112551276D01*
X108615466Y-112622704D01*
X108591657Y-112717942D01*
X108567847Y-112765561D01*
X108520228Y-112813180D01*
X108448800Y-112836990D01*
X108401180Y-112836990D01*
X108329752Y-112813180D01*
X108305942Y-112789371D01*
X108305942Y-112622704D01*
X108401180Y-112622704D01*
X108091657Y-112836990D02*
X108091657Y-112336990D01*
X107805942Y-112836990D01*
X107805942Y-112336990D01*
X107567847Y-112836990D02*
X107567847Y-112336990D01*
X107448800Y-112336990D01*
X107377371Y-112360800D01*
X107329752Y-112408419D01*
X107305942Y-112456038D01*
X107282133Y-112551276D01*
X107282133Y-112622704D01*
X107305942Y-112717942D01*
X107329752Y-112765561D01*
X107377371Y-112813180D01*
X107448800Y-112836990D01*
X107567847Y-112836990D01*
D12*
X132126324Y-114730180D02*
X132602514Y-114730180D01*
X132650133Y-115206371D01*
X132602514Y-115158752D01*
X132507276Y-115111133D01*
X132269181Y-115111133D01*
X132173943Y-115158752D01*
X132126324Y-115206371D01*
X132078705Y-115301609D01*
X132078705Y-115539704D01*
X132126324Y-115634942D01*
X132173943Y-115682561D01*
X132269181Y-115730180D01*
X132507276Y-115730180D01*
X132602514Y-115682561D01*
X132650133Y-115634942D01*
X131792990Y-114730180D02*
X131459657Y-115730180D01*
X131126324Y-114730180D01*
X132650133Y-107808561D02*
X132507276Y-107856180D01*
X132269180Y-107856180D01*
X132173942Y-107808561D01*
X132126323Y-107760942D01*
X132078704Y-107665704D01*
X132078704Y-107570466D01*
X132126323Y-107475228D01*
X132173942Y-107427609D01*
X132269180Y-107379990D01*
X132459657Y-107332371D01*
X132554895Y-107284752D01*
X132602514Y-107237133D01*
X132650133Y-107141895D01*
X132650133Y-107046657D01*
X132602514Y-106951419D01*
X132554895Y-106903800D01*
X132459657Y-106856180D01*
X132221561Y-106856180D01*
X132078704Y-106903800D01*
X131078704Y-107760942D02*
X131126323Y-107808561D01*
X131269180Y-107856180D01*
X131364418Y-107856180D01*
X131507276Y-107808561D01*
X131602514Y-107713323D01*
X131650133Y-107618085D01*
X131697752Y-107427609D01*
X131697752Y-107284752D01*
X131650133Y-107094276D01*
X131602514Y-106999038D01*
X131507276Y-106903800D01*
X131364418Y-106856180D01*
X131269180Y-106856180D01*
X131126323Y-106903800D01*
X131078704Y-106951419D01*
X130173942Y-107856180D02*
X130650133Y-107856180D01*
X130650133Y-106856180D01*
D13*
X106766038Y-112836990D02*
X106766038Y-112336990D01*
X106646990Y-112336990D01*
X106575561Y-112360800D01*
X106527942Y-112408419D01*
X106504133Y-112456038D01*
X106480323Y-112551276D01*
X106480323Y-112622704D01*
X106504133Y-112717942D01*
X106527942Y-112765561D01*
X106575561Y-112813180D01*
X106646990Y-112836990D01*
X106766038Y-112836990D01*
X106289847Y-112694133D02*
X106051752Y-112694133D01*
X106337466Y-112836990D02*
X106170800Y-112336990D01*
X106004133Y-112836990D01*
X105551752Y-112789371D02*
X105575561Y-112813180D01*
X105646990Y-112836990D01*
X105694609Y-112836990D01*
X105766038Y-112813180D01*
X105813657Y-112765561D01*
X105837466Y-112717942D01*
X105861276Y-112622704D01*
X105861276Y-112551276D01*
X105837466Y-112456038D01*
X105813657Y-112408419D01*
X105766038Y-112360800D01*
X105694609Y-112336990D01*
X105646990Y-112336990D01*
X105575561Y-112360800D01*
X105551752Y-112384609D01*
D12*
X132650133Y-90536561D02*
X132507276Y-90584180D01*
X132269181Y-90584180D01*
X132173943Y-90536561D01*
X132126324Y-90488942D01*
X132078705Y-90393704D01*
X132078705Y-90298466D01*
X132126324Y-90203228D01*
X132173943Y-90155609D01*
X132269181Y-90107990D01*
X132459657Y-90060371D01*
X132554895Y-90012752D01*
X132602514Y-89965133D01*
X132650133Y-89869895D01*
X132650133Y-89774657D01*
X132602514Y-89679419D01*
X132554895Y-89631800D01*
X132459657Y-89584180D01*
X132221562Y-89584180D01*
X132078705Y-89631800D01*
X131745371Y-89584180D02*
X131507276Y-90584180D01*
X131316800Y-89869895D01*
X131126324Y-90584180D01*
X130888228Y-89584180D01*
X130507276Y-90584180D02*
X130507276Y-89584180D01*
X130269181Y-89584180D01*
X130126324Y-89631800D01*
X130031086Y-89727038D01*
X129983466Y-89822276D01*
X129935847Y-90012752D01*
X129935847Y-90155609D01*
X129983466Y-90346085D01*
X130031086Y-90441323D01*
X130126324Y-90536561D01*
X130269181Y-90584180D01*
X130507276Y-90584180D01*
X129507276Y-90584180D02*
X129507276Y-89584180D01*
X128840609Y-89584180D02*
X128650133Y-89584180D01*
X128554895Y-89631800D01*
X128459657Y-89727038D01*
X128412038Y-89917514D01*
X128412038Y-90250847D01*
X128459657Y-90441323D01*
X128554895Y-90536561D01*
X128650133Y-90584180D01*
X128840609Y-90584180D01*
X128935847Y-90536561D01*
X129031086Y-90441323D01*
X129078705Y-90250847D01*
X129078705Y-89917514D01*
X129031086Y-89727038D01*
X128935847Y-89631800D01*
X128840609Y-89584180D01*
X132650133Y-100188561D02*
X132507276Y-100236180D01*
X132269180Y-100236180D01*
X132173942Y-100188561D01*
X132126323Y-100140942D01*
X132078704Y-100045704D01*
X132078704Y-99950466D01*
X132126323Y-99855228D01*
X132173942Y-99807609D01*
X132269180Y-99759990D01*
X132459657Y-99712371D01*
X132554895Y-99664752D01*
X132602514Y-99617133D01*
X132650133Y-99521895D01*
X132650133Y-99426657D01*
X132602514Y-99331419D01*
X132554895Y-99283800D01*
X132459657Y-99236180D01*
X132221561Y-99236180D01*
X132078704Y-99283800D01*
X131650133Y-100236180D02*
X131650133Y-99236180D01*
X131269180Y-99236180D01*
X131173942Y-99283800D01*
X131126323Y-99331419D01*
X131078704Y-99426657D01*
X131078704Y-99569514D01*
X131126323Y-99664752D01*
X131173942Y-99712371D01*
X131269180Y-99759990D01*
X131650133Y-99759990D01*
X130650133Y-100236180D02*
X130650133Y-99236180D01*
X130221561Y-99331419D02*
X130173942Y-99283800D01*
X130078704Y-99236180D01*
X129840609Y-99236180D01*
X129745371Y-99283800D01*
X129697752Y-99331419D01*
X129650133Y-99426657D01*
X129650133Y-99521895D01*
X129697752Y-99664752D01*
X130269180Y-100236180D01*
X129650133Y-100236180D01*
X129459657Y-100331419D02*
X128697752Y-100331419D01*
X128459657Y-100236180D02*
X128459657Y-99236180D01*
X128126323Y-99950466D01*
X127792990Y-99236180D01*
X127792990Y-100236180D01*
X127126323Y-99236180D02*
X126935847Y-99236180D01*
X126840609Y-99283800D01*
X126745371Y-99379038D01*
X126697752Y-99569514D01*
X126697752Y-99902847D01*
X126745371Y-100093323D01*
X126840609Y-100188561D01*
X126935847Y-100236180D01*
X127126323Y-100236180D01*
X127221561Y-100188561D01*
X127316799Y-100093323D01*
X127364418Y-99902847D01*
X127364418Y-99569514D01*
X127316799Y-99379038D01*
X127221561Y-99283800D01*
X127126323Y-99236180D01*
X126316799Y-100188561D02*
X126173942Y-100236180D01*
X125935847Y-100236180D01*
X125840609Y-100188561D01*
X125792990Y-100140942D01*
X125745371Y-100045704D01*
X125745371Y-99950466D01*
X125792990Y-99855228D01*
X125840609Y-99807609D01*
X125935847Y-99759990D01*
X126126323Y-99712371D01*
X126221561Y-99664752D01*
X126269180Y-99617133D01*
X126316799Y-99521895D01*
X126316799Y-99426657D01*
X126269180Y-99331419D01*
X126221561Y-99283800D01*
X126126323Y-99236180D01*
X125888228Y-99236180D01*
X125745371Y-99283800D01*
X125316799Y-100236180D02*
X125316799Y-99236180D01*
X132650133Y-105268561D02*
X132507276Y-105316180D01*
X132269181Y-105316180D01*
X132173943Y-105268561D01*
X132126324Y-105220942D01*
X132078705Y-105125704D01*
X132078705Y-105030466D01*
X132126324Y-104935228D01*
X132173943Y-104887609D01*
X132269181Y-104839990D01*
X132459657Y-104792371D01*
X132554895Y-104744752D01*
X132602514Y-104697133D01*
X132650133Y-104601895D01*
X132650133Y-104506657D01*
X132602514Y-104411419D01*
X132554895Y-104363800D01*
X132459657Y-104316180D01*
X132221562Y-104316180D01*
X132078705Y-104363800D01*
X131650133Y-105316180D02*
X131650133Y-104316180D01*
X131269181Y-104316180D01*
X131173943Y-104363800D01*
X131126324Y-104411419D01*
X131078705Y-104506657D01*
X131078705Y-104649514D01*
X131126324Y-104744752D01*
X131173943Y-104792371D01*
X131269181Y-104839990D01*
X131650133Y-104839990D01*
X130650133Y-105316180D02*
X130650133Y-104316180D01*
X130221562Y-104411419D02*
X130173943Y-104363800D01*
X130078705Y-104316180D01*
X129840610Y-104316180D01*
X129745371Y-104363800D01*
X129697752Y-104411419D01*
X129650133Y-104506657D01*
X129650133Y-104601895D01*
X129697752Y-104744752D01*
X130269181Y-105316180D01*
X129650133Y-105316180D01*
X129459657Y-105411419D02*
X128697752Y-105411419D01*
X128459657Y-105316180D02*
X128459657Y-104316180D01*
X127888229Y-105316180D01*
X127888229Y-104316180D01*
X127459657Y-105268561D02*
X127316800Y-105316180D01*
X127078705Y-105316180D01*
X126983467Y-105268561D01*
X126935848Y-105220942D01*
X126888229Y-105125704D01*
X126888229Y-105030466D01*
X126935848Y-104935228D01*
X126983467Y-104887609D01*
X127078705Y-104839990D01*
X127269181Y-104792371D01*
X127364419Y-104744752D01*
X127412038Y-104697133D01*
X127459657Y-104601895D01*
X127459657Y-104506657D01*
X127412038Y-104411419D01*
X127364419Y-104363800D01*
X127269181Y-104316180D01*
X127031086Y-104316180D01*
X126888229Y-104363800D01*
X126507276Y-105268561D02*
X126364419Y-105316180D01*
X126126324Y-105316180D01*
X126031086Y-105268561D01*
X125983467Y-105220942D01*
X125935848Y-105125704D01*
X125935848Y-105030466D01*
X125983467Y-104935228D01*
X126031086Y-104887609D01*
X126126324Y-104839990D01*
X126316800Y-104792371D01*
X126412038Y-104744752D01*
X126459657Y-104697133D01*
X126507276Y-104601895D01*
X126507276Y-104506657D01*
X126459657Y-104411419D01*
X126412038Y-104363800D01*
X126316800Y-104316180D01*
X126078705Y-104316180D01*
X125935848Y-104363800D01*
X132650133Y-110348561D02*
X132507276Y-110396180D01*
X132269181Y-110396180D01*
X132173943Y-110348561D01*
X132126324Y-110300942D01*
X132078705Y-110205704D01*
X132078705Y-110110466D01*
X132126324Y-110015228D01*
X132173943Y-109967609D01*
X132269181Y-109919990D01*
X132459657Y-109872371D01*
X132554895Y-109824752D01*
X132602514Y-109777133D01*
X132650133Y-109681895D01*
X132650133Y-109586657D01*
X132602514Y-109491419D01*
X132554895Y-109443800D01*
X132459657Y-109396180D01*
X132221562Y-109396180D01*
X132078705Y-109443800D01*
X131650133Y-110396180D02*
X131650133Y-109396180D01*
X131412038Y-109396180D01*
X131269181Y-109443800D01*
X131173943Y-109539038D01*
X131126324Y-109634276D01*
X131078705Y-109824752D01*
X131078705Y-109967609D01*
X131126324Y-110158085D01*
X131173943Y-110253323D01*
X131269181Y-110348561D01*
X131412038Y-110396180D01*
X131650133Y-110396180D01*
X130697752Y-110110466D02*
X130221562Y-110110466D01*
X130792990Y-110396180D02*
X130459657Y-109396180D01*
X130126324Y-110396180D01*
X132650133Y-102855561D02*
X132507276Y-102903180D01*
X132269181Y-102903180D01*
X132173943Y-102855561D01*
X132126324Y-102807942D01*
X132078705Y-102712704D01*
X132078705Y-102617466D01*
X132126324Y-102522228D01*
X132173943Y-102474609D01*
X132269181Y-102426990D01*
X132459657Y-102379371D01*
X132554895Y-102331752D01*
X132602514Y-102284133D01*
X132650133Y-102188895D01*
X132650133Y-102093657D01*
X132602514Y-101998419D01*
X132554895Y-101950800D01*
X132459657Y-101903180D01*
X132221562Y-101903180D01*
X132078705Y-101950800D01*
X131650133Y-102903180D02*
X131650133Y-101903180D01*
X131269181Y-101903180D01*
X131173943Y-101950800D01*
X131126324Y-101998419D01*
X131078705Y-102093657D01*
X131078705Y-102236514D01*
X131126324Y-102331752D01*
X131173943Y-102379371D01*
X131269181Y-102426990D01*
X131650133Y-102426990D01*
X130650133Y-102903180D02*
X130650133Y-101903180D01*
X130221562Y-101998419D02*
X130173943Y-101950800D01*
X130078705Y-101903180D01*
X129840609Y-101903180D01*
X129745371Y-101950800D01*
X129697752Y-101998419D01*
X129650133Y-102093657D01*
X129650133Y-102188895D01*
X129697752Y-102331752D01*
X130269181Y-102903180D01*
X129650133Y-102903180D01*
X129459657Y-102998419D02*
X128697752Y-102998419D01*
X128507276Y-102855561D02*
X128364419Y-102903180D01*
X128126324Y-102903180D01*
X128031086Y-102855561D01*
X127983467Y-102807942D01*
X127935848Y-102712704D01*
X127935848Y-102617466D01*
X127983467Y-102522228D01*
X128031086Y-102474609D01*
X128126324Y-102426990D01*
X128316800Y-102379371D01*
X128412038Y-102331752D01*
X128459657Y-102284133D01*
X128507276Y-102188895D01*
X128507276Y-102093657D01*
X128459657Y-101998419D01*
X128412038Y-101950800D01*
X128316800Y-101903180D01*
X128078705Y-101903180D01*
X127935848Y-101950800D01*
X126935848Y-102807942D02*
X126983467Y-102855561D01*
X127126324Y-102903180D01*
X127221562Y-102903180D01*
X127364419Y-102855561D01*
X127459657Y-102760323D01*
X127507276Y-102665085D01*
X127554895Y-102474609D01*
X127554895Y-102331752D01*
X127507276Y-102141276D01*
X127459657Y-102046038D01*
X127364419Y-101950800D01*
X127221562Y-101903180D01*
X127126324Y-101903180D01*
X126983467Y-101950800D01*
X126935848Y-101998419D01*
X126031086Y-102903180D02*
X126507276Y-102903180D01*
X126507276Y-101903180D01*
X125697752Y-102903180D02*
X125697752Y-101903180D01*
X125126324Y-102903180D02*
X125554895Y-102331752D01*
X125126324Y-101903180D02*
X125697752Y-102474609D01*
X132721276Y-97775561D02*
X132578419Y-97823180D01*
X132340323Y-97823180D01*
X132245085Y-97775561D01*
X132197466Y-97727942D01*
X132149847Y-97632704D01*
X132149847Y-97537466D01*
X132197466Y-97442228D01*
X132245085Y-97394609D01*
X132340323Y-97346990D01*
X132530800Y-97299371D01*
X132626038Y-97251752D01*
X132673657Y-97204133D01*
X132721276Y-97108895D01*
X132721276Y-97013657D01*
X132673657Y-96918419D01*
X132626038Y-96870800D01*
X132530800Y-96823180D01*
X132292704Y-96823180D01*
X132149847Y-96870800D01*
X131721276Y-97823180D02*
X131721276Y-96823180D01*
X131340323Y-96823180D01*
X131245085Y-96870800D01*
X131197466Y-96918419D01*
X131149847Y-97013657D01*
X131149847Y-97156514D01*
X131197466Y-97251752D01*
X131245085Y-97299371D01*
X131340323Y-97346990D01*
X131721276Y-97346990D01*
X130721276Y-97823180D02*
X130721276Y-96823180D01*
X130292704Y-96918419D02*
X130245085Y-96870800D01*
X130149847Y-96823180D01*
X129911752Y-96823180D01*
X129816514Y-96870800D01*
X129768895Y-96918419D01*
X129721276Y-97013657D01*
X129721276Y-97108895D01*
X129768895Y-97251752D01*
X130340323Y-97823180D01*
X129721276Y-97823180D01*
X129530800Y-97918419D02*
X128768895Y-97918419D01*
X128530800Y-97823180D02*
X128530800Y-96823180D01*
X128197466Y-97537466D01*
X127864133Y-96823180D01*
X127864133Y-97823180D01*
X127197466Y-96823180D02*
X127006990Y-96823180D01*
X126911752Y-96870800D01*
X126816514Y-96966038D01*
X126768895Y-97156514D01*
X126768895Y-97489847D01*
X126816514Y-97680323D01*
X126911752Y-97775561D01*
X127006990Y-97823180D01*
X127197466Y-97823180D01*
X127292704Y-97775561D01*
X127387942Y-97680323D01*
X127435561Y-97489847D01*
X127435561Y-97156514D01*
X127387942Y-96966038D01*
X127292704Y-96870800D01*
X127197466Y-96823180D01*
X126387942Y-97775561D02*
X126245085Y-97823180D01*
X126006990Y-97823180D01*
X125911752Y-97775561D01*
X125864133Y-97727942D01*
X125816514Y-97632704D01*
X125816514Y-97537466D01*
X125864133Y-97442228D01*
X125911752Y-97394609D01*
X126006990Y-97346990D01*
X126197466Y-97299371D01*
X126292704Y-97251752D01*
X126340323Y-97204133D01*
X126387942Y-97108895D01*
X126387942Y-97013657D01*
X126340323Y-96918419D01*
X126292704Y-96870800D01*
X126197466Y-96823180D01*
X125959371Y-96823180D01*
X125816514Y-96870800D01*
X125387942Y-97823180D02*
X125387942Y-96823180D01*
X130062371Y-77392180D02*
X129871895Y-77392180D01*
X129776657Y-77439800D01*
X129681419Y-77535038D01*
X129633800Y-77725514D01*
X129633800Y-78058847D01*
X129681419Y-78249323D01*
X129776657Y-78344561D01*
X129871895Y-78392180D01*
X130062371Y-78392180D01*
X130157609Y-78344561D01*
X130252847Y-78249323D01*
X130300466Y-78058847D01*
X130300466Y-77725514D01*
X130252847Y-77535038D01*
X130157609Y-77439800D01*
X130062371Y-77392180D01*
X129348085Y-77392180D02*
X129014752Y-78392180D01*
X128681419Y-77392180D01*
X128395704Y-77487419D02*
X128348085Y-77439800D01*
X128252847Y-77392180D01*
X128014752Y-77392180D01*
X127919514Y-77439800D01*
X127871895Y-77487419D01*
X127824276Y-77582657D01*
X127824276Y-77677895D01*
X127871895Y-77820752D01*
X128443323Y-78392180D01*
X127824276Y-78392180D01*
X126967133Y-77392180D02*
X127157609Y-77392180D01*
X127252847Y-77439800D01*
X127300466Y-77487419D01*
X127395704Y-77630276D01*
X127443323Y-77820752D01*
X127443323Y-78201704D01*
X127395704Y-78296942D01*
X127348085Y-78344561D01*
X127252847Y-78392180D01*
X127062371Y-78392180D01*
X126967133Y-78344561D01*
X126919514Y-78296942D01*
X126871895Y-78201704D01*
X126871895Y-77963609D01*
X126919514Y-77868371D01*
X126967133Y-77820752D01*
X127062371Y-77773133D01*
X127252847Y-77773133D01*
X127348085Y-77820752D01*
X127395704Y-77868371D01*
X127443323Y-77963609D01*
X126014752Y-77725514D02*
X126014752Y-78392180D01*
X126252847Y-77344561D02*
X126490942Y-78058847D01*
X125871895Y-78058847D01*
X125300466Y-77392180D02*
X125205228Y-77392180D01*
X125109990Y-77439800D01*
X125062371Y-77487419D01*
X125014752Y-77582657D01*
X124967133Y-77773133D01*
X124967133Y-78011228D01*
X125014752Y-78201704D01*
X125062371Y-78296942D01*
X125109990Y-78344561D01*
X125205228Y-78392180D01*
X125300466Y-78392180D01*
X125395704Y-78344561D01*
X125443323Y-78296942D01*
X125490942Y-78201704D01*
X125538561Y-78011228D01*
X125538561Y-77773133D01*
X125490942Y-77582657D01*
X125443323Y-77487419D01*
X125395704Y-77439800D01*
X125300466Y-77392180D01*
X132650133Y-95616561D02*
X132507275Y-95664180D01*
X132269180Y-95664180D01*
X132173942Y-95616561D01*
X132126323Y-95568942D01*
X132078704Y-95473704D01*
X132078704Y-95378466D01*
X132126323Y-95283228D01*
X132173942Y-95235609D01*
X132269180Y-95187990D01*
X132459656Y-95140371D01*
X132554895Y-95092752D01*
X132602514Y-95045133D01*
X132650133Y-94949895D01*
X132650133Y-94854657D01*
X132602514Y-94759419D01*
X132554895Y-94711800D01*
X132459656Y-94664180D01*
X132221561Y-94664180D01*
X132078704Y-94711800D01*
X131650133Y-95664180D02*
X131650133Y-94664180D01*
X131269180Y-94664180D01*
X131173942Y-94711800D01*
X131126323Y-94759419D01*
X131078704Y-94854657D01*
X131078704Y-94997514D01*
X131126323Y-95092752D01*
X131173942Y-95140371D01*
X131269180Y-95187990D01*
X131650133Y-95187990D01*
X130650133Y-95664180D02*
X130650133Y-94664180D01*
X130269180Y-94664180D02*
X129650133Y-94664180D01*
X129983466Y-95045133D01*
X129840609Y-95045133D01*
X129745371Y-95092752D01*
X129697752Y-95140371D01*
X129650133Y-95235609D01*
X129650133Y-95473704D01*
X129697752Y-95568942D01*
X129745371Y-95616561D01*
X129840609Y-95664180D01*
X130126323Y-95664180D01*
X130221561Y-95616561D01*
X130269180Y-95568942D01*
X129459656Y-95759419D02*
X128697752Y-95759419D01*
X128507275Y-95616561D02*
X128364418Y-95664180D01*
X128126323Y-95664180D01*
X128031085Y-95616561D01*
X127983466Y-95568942D01*
X127935847Y-95473704D01*
X127935847Y-95378466D01*
X127983466Y-95283228D01*
X128031085Y-95235609D01*
X128126323Y-95187990D01*
X128316799Y-95140371D01*
X128412037Y-95092752D01*
X128459656Y-95045133D01*
X128507275Y-94949895D01*
X128507275Y-94854657D01*
X128459656Y-94759419D01*
X128412037Y-94711800D01*
X128316799Y-94664180D01*
X128078704Y-94664180D01*
X127935847Y-94711800D01*
X126935847Y-95568942D02*
X126983466Y-95616561D01*
X127126323Y-95664180D01*
X127221561Y-95664180D01*
X127364418Y-95616561D01*
X127459656Y-95521323D01*
X127507275Y-95426085D01*
X127554895Y-95235609D01*
X127554895Y-95092752D01*
X127507275Y-94902276D01*
X127459656Y-94807038D01*
X127364418Y-94711800D01*
X127221561Y-94664180D01*
X127126323Y-94664180D01*
X126983466Y-94711800D01*
X126935847Y-94759419D01*
X126031085Y-95664180D02*
X126507275Y-95664180D01*
X126507275Y-94664180D01*
X125697752Y-95664180D02*
X125697752Y-94664180D01*
X125126323Y-95664180D02*
X125554895Y-95092752D01*
X125126323Y-94664180D02*
X125697752Y-95235609D01*
X123983466Y-94616561D02*
X124840609Y-95902276D01*
X123792990Y-94664180D02*
X123221561Y-94664180D01*
X123507275Y-95664180D02*
X123507275Y-94664180D01*
X122316799Y-95664180D02*
X122650133Y-95187990D01*
X122888228Y-95664180D02*
X122888228Y-94664180D01*
X122507275Y-94664180D01*
X122412037Y-94711800D01*
X122364418Y-94759419D01*
X122316799Y-94854657D01*
X122316799Y-94997514D01*
X122364418Y-95092752D01*
X122412037Y-95140371D01*
X122507275Y-95187990D01*
X122888228Y-95187990D01*
X121935847Y-95378466D02*
X121459656Y-95378466D01*
X122031085Y-95664180D02*
X121697752Y-94664180D01*
X121364418Y-95664180D01*
X120459656Y-95568942D02*
X120507275Y-95616561D01*
X120650133Y-95664180D01*
X120745371Y-95664180D01*
X120888228Y-95616561D01*
X120983466Y-95521323D01*
X121031085Y-95426085D01*
X121078704Y-95235609D01*
X121078704Y-95092752D01*
X121031085Y-94902276D01*
X120983466Y-94807038D01*
X120888228Y-94711800D01*
X120745371Y-94664180D01*
X120650133Y-94664180D01*
X120507275Y-94711800D01*
X120459656Y-94759419D01*
X119697752Y-95140371D02*
X120031085Y-95140371D01*
X120031085Y-95664180D02*
X120031085Y-94664180D01*
X119554895Y-94664180D01*
X119221561Y-95616561D02*
X119078704Y-95664180D01*
X118840609Y-95664180D01*
X118745371Y-95616561D01*
X118697752Y-95568942D01*
X118650133Y-95473704D01*
X118650133Y-95378466D01*
X118697752Y-95283228D01*
X118745371Y-95235609D01*
X118840609Y-95187990D01*
X119031085Y-95140371D01*
X119126323Y-95092752D01*
X119173942Y-95045133D01*
X119221561Y-94949895D01*
X119221561Y-94854657D01*
X119173942Y-94759419D01*
X119126323Y-94711800D01*
X119031085Y-94664180D01*
X118792990Y-94664180D01*
X118650133Y-94711800D01*
X118316799Y-94664180D02*
X118078704Y-95664180D01*
X117888228Y-94949895D01*
X117697752Y-95664180D01*
X117459656Y-94664180D01*
X116888228Y-94664180D02*
X116697752Y-94664180D01*
X116602514Y-94711800D01*
X116507275Y-94807038D01*
X116459656Y-94997514D01*
X116459656Y-95330847D01*
X116507275Y-95521323D01*
X116602514Y-95616561D01*
X116697752Y-95664180D01*
X116888228Y-95664180D01*
X116983466Y-95616561D01*
X117078704Y-95521323D01*
X117126323Y-95330847D01*
X117126323Y-94997514D01*
X117078704Y-94807038D01*
X116983466Y-94711800D01*
X116888228Y-94664180D01*
X108932704Y-107219704D02*
X108475561Y-107219704D01*
X108704133Y-108019704D02*
X108704133Y-107219704D01*
X108208895Y-108019704D02*
X108208895Y-107219704D01*
X107827942Y-108019704D02*
X107827942Y-107219704D01*
X107561276Y-107791133D01*
X107294609Y-107219704D01*
X107294609Y-108019704D01*
X106570800Y-107486371D02*
X106570800Y-108019704D01*
X106761276Y-107181609D02*
X106951752Y-107753038D01*
X106456514Y-107753038D01*
X106342228Y-108095895D02*
X105732704Y-108095895D01*
X105085085Y-107943514D02*
X105123180Y-107981609D01*
X105237466Y-108019704D01*
X105313657Y-108019704D01*
X105427942Y-107981609D01*
X105504133Y-107905419D01*
X105542228Y-107829228D01*
X105580323Y-107676847D01*
X105580323Y-107562561D01*
X105542228Y-107410180D01*
X105504133Y-107333990D01*
X105427942Y-107257800D01*
X105313657Y-107219704D01*
X105237466Y-107219704D01*
X105123180Y-107257800D01*
X105085085Y-107295895D01*
X104742228Y-108019704D02*
X104742228Y-107219704D01*
X104742228Y-107600657D02*
X104285085Y-107600657D01*
X104285085Y-108019704D02*
X104285085Y-107219704D01*
X103942228Y-107295895D02*
X103904133Y-107257800D01*
X103827942Y-107219704D01*
X103637466Y-107219704D01*
X103561276Y-107257800D01*
X103523180Y-107295895D01*
X103485085Y-107372085D01*
X103485085Y-107448276D01*
X103523180Y-107562561D01*
X103980323Y-108019704D01*
X103485085Y-108019704D01*
X132697752Y-84504180D02*
X132078704Y-84504180D01*
X132412037Y-84885133D01*
X132269180Y-84885133D01*
X132173942Y-84932752D01*
X132126323Y-84980371D01*
X132078704Y-85075609D01*
X132078704Y-85313704D01*
X132126323Y-85408942D01*
X132173942Y-85456561D01*
X132269180Y-85504180D01*
X132554895Y-85504180D01*
X132650133Y-85456561D01*
X132697752Y-85408942D01*
X131792990Y-84504180D02*
X131459657Y-85504180D01*
X131126323Y-84504180D01*
X130888228Y-84504180D02*
X130269180Y-84504180D01*
X130602514Y-84885133D01*
X130459657Y-84885133D01*
X130364418Y-84932752D01*
X130316799Y-84980371D01*
X130269180Y-85075609D01*
X130269180Y-85313704D01*
X130316799Y-85408942D01*
X130364418Y-85456561D01*
X130459657Y-85504180D01*
X130745371Y-85504180D01*
X130840609Y-85456561D01*
X130888228Y-85408942D01*
D13*
X106551752Y-114773800D02*
X106599371Y-114749990D01*
X106670800Y-114749990D01*
X106742228Y-114773800D01*
X106789847Y-114821419D01*
X106813657Y-114869038D01*
X106837466Y-114964276D01*
X106837466Y-115035704D01*
X106813657Y-115130942D01*
X106789847Y-115178561D01*
X106742228Y-115226180D01*
X106670800Y-115249990D01*
X106623180Y-115249990D01*
X106551752Y-115226180D01*
X106527942Y-115202371D01*
X106527942Y-115035704D01*
X106623180Y-115035704D01*
X106313657Y-115249990D02*
X106313657Y-114749990D01*
X106027942Y-115249990D01*
X106027942Y-114749990D01*
X105789847Y-115249990D02*
X105789847Y-114749990D01*
X105670800Y-114749990D01*
X105599371Y-114773800D01*
X105551752Y-114821419D01*
X105527942Y-114869038D01*
X105504133Y-114964276D01*
X105504133Y-115035704D01*
X105527942Y-115130942D01*
X105551752Y-115178561D01*
X105599371Y-115226180D01*
X105670800Y-115249990D01*
X105789847Y-115249990D01*
D12*
X132650133Y-92949561D02*
X132507276Y-92997180D01*
X132269181Y-92997180D01*
X132173943Y-92949561D01*
X132126324Y-92901942D01*
X132078705Y-92806704D01*
X132078705Y-92711466D01*
X132126324Y-92616228D01*
X132173943Y-92568609D01*
X132269181Y-92520990D01*
X132459657Y-92473371D01*
X132554895Y-92425752D01*
X132602514Y-92378133D01*
X132650133Y-92282895D01*
X132650133Y-92187657D01*
X132602514Y-92092419D01*
X132554895Y-92044800D01*
X132459657Y-91997180D01*
X132221562Y-91997180D01*
X132078705Y-92044800D01*
X131745371Y-91997180D02*
X131507276Y-92997180D01*
X131316800Y-92282895D01*
X131126324Y-92997180D01*
X130888229Y-91997180D01*
X129935848Y-92901942D02*
X129983467Y-92949561D01*
X130126324Y-92997180D01*
X130221562Y-92997180D01*
X130364419Y-92949561D01*
X130459657Y-92854323D01*
X130507276Y-92759085D01*
X130554895Y-92568609D01*
X130554895Y-92425752D01*
X130507276Y-92235276D01*
X130459657Y-92140038D01*
X130364419Y-92044800D01*
X130221562Y-91997180D01*
X130126324Y-91997180D01*
X129983467Y-92044800D01*
X129935848Y-92092419D01*
X129031086Y-92997180D02*
X129507276Y-92997180D01*
X129507276Y-91997180D01*
X128697752Y-92997180D02*
X128697752Y-91997180D01*
X128126324Y-92997180D02*
X128554895Y-92425752D01*
X128126324Y-91997180D02*
X128697752Y-92568609D01*
X130062371Y-79678180D02*
X129871895Y-79678180D01*
X129776657Y-79725800D01*
X129681419Y-79821038D01*
X129633800Y-80011514D01*
X129633800Y-80344847D01*
X129681419Y-80535323D01*
X129776657Y-80630561D01*
X129871895Y-80678180D01*
X130062371Y-80678180D01*
X130157609Y-80630561D01*
X130252847Y-80535323D01*
X130300466Y-80344847D01*
X130300466Y-80011514D01*
X130252847Y-79821038D01*
X130157609Y-79725800D01*
X130062371Y-79678180D01*
X129348085Y-79678180D02*
X129014752Y-80678180D01*
X128681419Y-79678180D01*
X128443323Y-79678180D02*
X127776657Y-79678180D01*
X128205228Y-80678180D01*
X127490942Y-79678180D02*
X126824276Y-79678180D01*
X127252847Y-80678180D01*
X126490942Y-79773419D02*
X126443323Y-79725800D01*
X126348085Y-79678180D01*
X126109990Y-79678180D01*
X126014752Y-79725800D01*
X125967133Y-79773419D01*
X125919514Y-79868657D01*
X125919514Y-79963895D01*
X125967133Y-80106752D01*
X126538561Y-80678180D01*
X125919514Y-80678180D01*
X125014752Y-79678180D02*
X125490942Y-79678180D01*
X125538561Y-80154371D01*
X125490942Y-80106752D01*
X125395704Y-80059133D01*
X125157609Y-80059133D01*
X125062371Y-80106752D01*
X125014752Y-80154371D01*
X124967133Y-80249609D01*
X124967133Y-80487704D01*
X125014752Y-80582942D01*
X125062371Y-80630561D01*
X125157609Y-80678180D01*
X125395704Y-80678180D01*
X125490942Y-80630561D01*
X125538561Y-80582942D01*
X108932704Y-104679704D02*
X108475561Y-104679704D01*
X108704133Y-105479704D02*
X108704133Y-104679704D01*
X108208895Y-105479704D02*
X108208895Y-104679704D01*
X107827942Y-105479704D02*
X107827942Y-104679704D01*
X107561276Y-105251133D01*
X107294609Y-104679704D01*
X107294609Y-105479704D01*
X106570800Y-104946371D02*
X106570800Y-105479704D01*
X106761276Y-104641609D02*
X106951752Y-105213038D01*
X106456514Y-105213038D01*
X106342228Y-105555895D02*
X105732704Y-105555895D01*
X105085085Y-105403514D02*
X105123180Y-105441609D01*
X105237466Y-105479704D01*
X105313657Y-105479704D01*
X105427942Y-105441609D01*
X105504133Y-105365419D01*
X105542228Y-105289228D01*
X105580323Y-105136847D01*
X105580323Y-105022561D01*
X105542228Y-104870180D01*
X105504133Y-104793990D01*
X105427942Y-104717800D01*
X105313657Y-104679704D01*
X105237466Y-104679704D01*
X105123180Y-104717800D01*
X105085085Y-104755895D01*
X104742228Y-105479704D02*
X104742228Y-104679704D01*
X104742228Y-105060657D02*
X104285085Y-105060657D01*
X104285085Y-105479704D02*
X104285085Y-104679704D01*
X103980323Y-104679704D02*
X103485085Y-104679704D01*
X103751752Y-104984466D01*
X103637466Y-104984466D01*
X103561276Y-105022561D01*
X103523180Y-105060657D01*
X103485085Y-105136847D01*
X103485085Y-105327323D01*
X103523180Y-105403514D01*
X103561276Y-105441609D01*
X103637466Y-105479704D01*
X103866038Y-105479704D01*
X103942228Y-105441609D01*
X103980323Y-105403514D01*
%TO.C,G\u002A\u002A\u002A*%
G36*
X117052091Y-83369782D02*
G01*
X117160485Y-83726983D01*
X117049785Y-83987402D01*
X116902831Y-83893879D01*
X116772808Y-83369782D01*
X116773431Y-83304699D01*
X116836609Y-83002403D01*
X117052091Y-83369782D01*
G37*
G36*
X118242266Y-87521299D02*
G01*
X117992814Y-87521299D01*
X117992814Y-87271848D01*
X118242266Y-87271848D01*
X118242266Y-87521299D01*
G37*
G36*
X118264954Y-87997514D02*
G01*
X118289039Y-87979141D01*
X118475290Y-88161355D01*
X118655629Y-88391819D01*
X119253753Y-88754876D01*
X119606239Y-88959088D01*
X120425728Y-89588639D01*
X121334944Y-90415458D01*
X121982017Y-91066246D01*
X122359347Y-91523149D01*
X122301780Y-91685403D01*
X121853033Y-91657845D01*
X121260949Y-91477963D01*
X120784985Y-91078547D01*
X120651752Y-90882840D01*
X120470046Y-91086835D01*
X120359228Y-91296299D01*
X120121253Y-91019106D01*
X120109585Y-90993414D01*
X119845480Y-90740585D01*
X119499382Y-91138820D01*
X119470264Y-91187891D01*
X119158197Y-91536040D01*
X118968538Y-91239018D01*
X118878309Y-90985173D01*
X118801950Y-91119142D01*
X118804304Y-91259605D01*
X118955040Y-91726395D01*
X118992771Y-91795329D01*
X119108323Y-92386027D01*
X119181154Y-93324493D01*
X119195582Y-93745526D01*
X119178407Y-94391364D01*
X119026310Y-94497714D01*
X118668245Y-94183568D01*
X118639635Y-94154455D01*
X117910924Y-93061531D01*
X117393076Y-91667665D01*
X117352153Y-91335923D01*
X117535487Y-91335923D01*
X117584822Y-91431371D01*
X117868089Y-91198502D01*
X118011233Y-90975784D01*
X118200690Y-90441868D01*
X118151356Y-90346420D01*
X117868088Y-90579288D01*
X117724944Y-90802007D01*
X117535487Y-91335923D01*
X117352153Y-91335923D01*
X117231865Y-90360823D01*
X117235010Y-89946210D01*
X117235645Y-89862454D01*
X117073462Y-89432128D01*
X116586641Y-89028717D01*
X115624679Y-88475687D01*
X115063217Y-88191046D01*
X113701502Y-87630611D01*
X112495371Y-87281357D01*
X111894252Y-87119044D01*
X110451226Y-86513464D01*
X108851883Y-85641301D01*
X107733122Y-84902058D01*
X109553037Y-84902058D01*
X109559743Y-84968474D01*
X109885639Y-85234660D01*
X109999695Y-85198655D01*
X109885639Y-84902058D01*
X109735577Y-84788001D01*
X109553037Y-84902058D01*
X107733122Y-84902058D01*
X107337460Y-84640617D01*
X106149196Y-83649469D01*
X106144552Y-83644834D01*
X105454927Y-82665185D01*
X105021333Y-81534461D01*
X105002412Y-81446041D01*
X104680423Y-80467322D01*
X104431373Y-80048705D01*
X105048584Y-80048705D01*
X105141512Y-80364064D01*
X105591503Y-81135289D01*
X106289477Y-82050682D01*
X107532677Y-83513247D01*
X106546744Y-82079454D01*
X106234456Y-81615901D01*
X106178122Y-81527143D01*
X105651456Y-80697349D01*
X105305852Y-80077476D01*
X105117712Y-79767470D01*
X105048584Y-80048705D01*
X104431373Y-80048705D01*
X104275155Y-79786125D01*
X104170554Y-79676781D01*
X103998536Y-79379353D01*
X104423163Y-79388665D01*
X104604204Y-79414329D01*
X104721518Y-79371275D01*
X104771541Y-79352916D01*
X104330751Y-79028290D01*
X103762679Y-78480074D01*
X103174580Y-77526627D01*
X102709968Y-76406898D01*
X102431180Y-75312205D01*
X102424582Y-75122980D01*
X102659488Y-75122980D01*
X102788735Y-75459439D01*
X103324190Y-76079714D01*
X103590471Y-76328880D01*
X103635026Y-76684479D01*
X103608264Y-76742266D01*
X103797263Y-77191012D01*
X104356782Y-77833611D01*
X105313667Y-78747613D01*
X104813420Y-77751150D01*
X104725757Y-77581948D01*
X104208098Y-76716408D01*
X103632010Y-75902752D01*
X103108124Y-75275968D01*
X102747073Y-74971049D01*
X102659488Y-75122980D01*
X102424582Y-75122980D01*
X102407442Y-74631417D01*
X102400554Y-74433871D01*
X102680426Y-73963216D01*
X102745277Y-73936084D01*
X103156072Y-73959360D01*
X103435609Y-74543035D01*
X103647411Y-75105252D01*
X104021765Y-75777896D01*
X104375919Y-76264287D01*
X104974786Y-77251464D01*
X105484451Y-78263861D01*
X105805845Y-79096290D01*
X105839903Y-79543566D01*
X105833479Y-79595588D01*
X106184737Y-79405963D01*
X106892220Y-78915220D01*
X108189272Y-77967208D01*
X106183575Y-80122769D01*
X107628738Y-81914583D01*
X108361220Y-82778268D01*
X109250380Y-83727015D01*
X109928489Y-84342236D01*
X109934985Y-84347081D01*
X110495506Y-84872122D01*
X110652536Y-85245515D01*
X110729055Y-85506841D01*
X111227179Y-85924695D01*
X111699627Y-86106143D01*
X112015718Y-85983325D01*
X112114262Y-85889327D01*
X112362871Y-86222530D01*
X112563073Y-86539857D01*
X112737505Y-86345319D01*
X112924044Y-86144459D01*
X113385843Y-86488219D01*
X113725345Y-86793445D01*
X114606132Y-87407665D01*
X115691539Y-88042239D01*
X116400673Y-88440624D01*
X117432637Y-89093224D01*
X118110440Y-89614563D01*
X118761144Y-90245292D01*
X118693084Y-90015815D01*
X119489523Y-90015815D01*
X119738975Y-90015815D01*
X119738975Y-89766363D01*
X119489523Y-89766363D01*
X119489523Y-90015815D01*
X118693084Y-90015815D01*
X118447309Y-89187143D01*
X118437921Y-89155233D01*
X118307044Y-88583884D01*
X118262501Y-88389426D01*
X118264954Y-87997514D01*
G37*
G36*
X115248847Y-80536655D02*
G01*
X114999395Y-80536655D01*
X114999396Y-80287204D01*
X115248847Y-80287203D01*
X115248847Y-80536655D01*
G37*
G36*
X105021333Y-73302560D02*
G01*
X104771881Y-73302560D01*
X104771881Y-73053108D01*
X105021333Y-73053108D01*
X105021333Y-73302560D01*
G37*
G36*
X108476869Y-76621492D02*
G01*
X108430251Y-77199645D01*
X108257197Y-77501661D01*
X108154257Y-77273475D01*
X108238228Y-76621492D01*
X108365977Y-76133365D01*
X108449496Y-76034155D01*
X108476869Y-76621492D01*
G37*
G36*
X107655297Y-73691460D02*
G01*
X107782021Y-73844528D01*
X107710677Y-74033510D01*
X107158261Y-73883687D01*
X106919968Y-73732824D01*
X107021569Y-73550921D01*
X107135863Y-73534370D01*
X107655297Y-73691460D01*
G37*
G36*
X115955626Y-81160284D02*
G01*
X115948920Y-81226701D01*
X115623025Y-81492886D01*
X115508968Y-81456882D01*
X115623025Y-81160284D01*
X115773085Y-81046228D01*
X115955626Y-81160284D01*
G37*
G36*
X108638381Y-74175640D02*
G01*
X108964527Y-74281173D01*
X109614834Y-74695897D01*
X109713288Y-74910286D01*
X109262010Y-74799270D01*
X109017522Y-74696492D01*
X108413140Y-74371768D01*
X108255397Y-74166788D01*
X108638381Y-74175640D01*
G37*
G36*
X116745557Y-82532268D02*
G01*
X116496105Y-82532268D01*
X116496105Y-82282816D01*
X116745557Y-82282816D01*
X116745557Y-82532268D01*
G37*
G36*
X106283312Y-73317282D02*
G01*
X106315757Y-73354583D01*
X106226293Y-73553916D01*
X105707325Y-73537291D01*
X105507225Y-73458580D01*
X105707325Y-73317283D01*
X105895142Y-73283472D01*
X106283312Y-73317282D01*
G37*
G36*
X104023527Y-73302561D02*
G01*
X103774075Y-73302561D01*
X103774075Y-73053109D01*
X104023527Y-73053109D01*
X104023527Y-73302561D01*
G37*
G36*
X117493911Y-84527881D02*
G01*
X117493912Y-84777332D01*
X117244460Y-84777332D01*
X117244460Y-84527880D01*
X117493911Y-84527881D01*
G37*
G36*
X114874669Y-78915220D02*
G01*
X114931681Y-78991680D01*
X114999395Y-79538850D01*
X114823616Y-79674461D01*
X114375767Y-79414123D01*
X114134849Y-79063379D01*
X114251041Y-78790495D01*
X114371021Y-78772772D01*
X114874669Y-78915220D01*
G37*
G36*
X110844058Y-75462286D02*
G01*
X111152437Y-75840209D01*
X111030052Y-75899920D01*
X110884190Y-75819952D01*
X110406423Y-75276291D01*
X110450727Y-75147359D01*
X110844058Y-75462286D01*
G37*
G36*
X117743363Y-85525686D02*
G01*
X117493911Y-85525686D01*
X117493911Y-85276235D01*
X117743363Y-85276235D01*
X117743363Y-85525686D01*
G37*
D14*
%TO.C,U4*%
X112429800Y-101092800D02*
X112429800Y-102997800D01*
X109889800Y-115062800D02*
X125764800Y-115062800D01*
X125764800Y-115062800D02*
X125764800Y-112522800D01*
X112429800Y-102997800D02*
X110524800Y-102997800D01*
X109889800Y-102997800D02*
X109889800Y-109982800D01*
X110524800Y-102997800D02*
X109889800Y-102997800D01*
X125764800Y-109982800D02*
X125764800Y-102997800D01*
X114969800Y-101092800D02*
X112429800Y-101092800D01*
X109889800Y-112522800D02*
X109889800Y-115062800D01*
X114832800Y-101778800D02*
G75*
G03*
X114832800Y-101778800I-254000J0D01*
G01*
%TD*%
D15*
X125069600Y-75869800D03*
X123748800Y-74472800D03*
X107264200Y-69494400D03*
X125069600Y-74498200D03*
X108583800Y-105244800D03*
X128649800Y-100418800D03*
X103503800Y-88353800D03*
X132205800Y-86194800D03*
X110845600Y-72999600D03*
X129538800Y-101307800D03*
X114681000Y-70104000D03*
X132459800Y-106260800D03*
X116992400Y-70104000D03*
X109118400Y-78384400D03*
X126998800Y-82511800D03*
X112647800Y-89877800D03*
X116711800Y-103847800D03*
X126109800Y-82511800D03*
X117727800Y-112356800D03*
X121664800Y-102196800D03*
X108583800Y-106387800D03*
X124204800Y-95592800D03*
X121410800Y-103974800D03*
X107264200Y-68021200D03*
X126109800Y-83400800D03*
X117854800Y-104863800D03*
X108583800Y-103974800D03*
X129870200Y-69418200D03*
X109091800Y-99656800D03*
X110107800Y-83146800D03*
X129895600Y-67945000D03*
X132205800Y-85305800D03*
X118997800Y-112356800D03*
X108837800Y-94449800D03*
X112647800Y-88861800D03*
X110107800Y-82257800D03*
X103503800Y-85559800D03*
X109853800Y-106387800D03*
X103503800Y-94703800D03*
X116711800Y-104863800D03*
X117854800Y-103847800D03*
X128649800Y-101307800D03*
X118997800Y-113499800D03*
X114552800Y-91528800D03*
X109093000Y-77571600D03*
X132205800Y-84416800D03*
X103503800Y-86829800D03*
X129538800Y-100418800D03*
X110361800Y-99656800D03*
X107948800Y-94449800D03*
X115441800Y-91528800D03*
X117727800Y-113499800D03*
X107948800Y-95338800D03*
X127125800Y-104101800D03*
X109853800Y-105244800D03*
X103503800Y-98005800D03*
X132459800Y-104990800D03*
X128295400Y-94462600D03*
X123748800Y-75844400D03*
X127050800Y-103098600D03*
X130860800Y-106106800D03*
X129792800Y-88480800D03*
X116535200Y-101955600D03*
X112154800Y-105202800D03*
X112144800Y-97612800D03*
X116654800Y-106362800D03*
X120734800Y-107002800D03*
X119405400Y-68402200D03*
X119380000Y-70078600D03*
X122377200Y-70789800D03*
X118465600Y-70840600D03*
X108940600Y-71983600D03*
X114071400Y-77546200D03*
X114019400Y-81597400D03*
X114705200Y-81572000D03*
X114681000Y-76936600D03*
X118618000Y-77724000D03*
X118541800Y-88366600D03*
X115619600Y-82308600D03*
X115646200Y-77190600D03*
X118134200Y-82181600D03*
X117475000Y-76708000D03*
X116941600Y-76200000D03*
X113105000Y-97193000D03*
X113155800Y-87312400D03*
X118387430Y-73688970D03*
X119075200Y-89433400D03*
X117906800Y-75641200D03*
X117396830Y-73231770D03*
X112571600Y-86880600D03*
X116420900Y-82181700D03*
X116382800Y-75717400D03*
X114146400Y-97167600D03*
X115900200Y-75184000D03*
X111987400Y-86347200D03*
X115382800Y-72749170D03*
X120144800Y-90522800D03*
X114884200Y-74701400D03*
X112725200Y-82042000D03*
X112750600Y-76073000D03*
X120614800Y-90122800D03*
X113866230Y-74196970D03*
X113385600Y-75158600D03*
X113460600Y-82003800D03*
X115137000Y-85204200D03*
X113224800Y-92382800D03*
X113844800Y-92882800D03*
X114354800Y-93382800D03*
X108004610Y-113203990D03*
X124224800Y-91882800D03*
X124128600Y-87439400D03*
X127379800Y-86880600D03*
X127572400Y-95882800D03*
X128116400Y-96380200D03*
X127557600Y-96888200D03*
X128104800Y-97382800D03*
X119344800Y-103662800D03*
X119834800Y-104312800D03*
X113634800Y-100462800D03*
X132561400Y-74841000D03*
X109143800Y-92379800D03*
X108331000Y-77546200D03*
X108762800Y-92887800D03*
X107975400Y-79705200D03*
X108381800Y-93395800D03*
X107061000Y-83235800D03*
X123138000Y-84975600D03*
X122630000Y-85458200D03*
X122401400Y-87896600D03*
X123823800Y-90385800D03*
X124408000Y-89877800D03*
X122299800Y-86982200D03*
X121106000Y-97701000D03*
X124458800Y-97701000D03*
X122909400Y-87541000D03*
X115794800Y-107042800D03*
X119604800Y-91162800D03*
D16*
X134416800Y-95084800D03*
X134416800Y-92544800D03*
X134416800Y-90004800D03*
X134416800Y-87464800D03*
X134416800Y-84924800D03*
X134416800Y-82384800D03*
X134364800Y-77673200D03*
X131824800Y-77673200D03*
X104190800Y-115112800D03*
X104190800Y-112572800D03*
X134364800Y-80035400D03*
X131824800Y-80035400D03*
X115500770Y-109871290D03*
X121280790Y-109871290D03*
D17*
X122710760Y-113521270D03*
X114070800Y-113521270D03*
X122710760Y-109341280D03*
X114070800Y-109341280D03*
D16*
X101777800Y-102539800D03*
X101777800Y-105079800D03*
X101777800Y-107619800D03*
X101777800Y-110159800D03*
X101777800Y-112699800D03*
X101777800Y-115239800D03*
X134416800Y-97345500D03*
X134416800Y-99885500D03*
X134416800Y-102425500D03*
X134416800Y-104965500D03*
X134416800Y-107505500D03*
X134416800Y-110045500D03*
X134416800Y-112585500D03*
X134416800Y-115125500D03*
X114839750Y-111697780D03*
X122839730Y-111697780D03*
%LPC*%
D18*
%TO.C,J2*%
X134416800Y-95084800D03*
D19*
X134416800Y-92544800D03*
X134416800Y-90004800D03*
X134416800Y-87464800D03*
X134416800Y-84924800D03*
X134416800Y-82384800D03*
%TD*%
D18*
%TO.C,J5*%
X134364800Y-77673200D03*
D19*
X131824800Y-77673200D03*
%TD*%
D18*
%TO.C,J4*%
X104190800Y-115112800D03*
D19*
X104190800Y-112572800D03*
%TD*%
D18*
%TO.C,J6*%
X134364800Y-80035400D03*
D19*
X131824800Y-80035400D03*
%TD*%
D20*
%TO.C,U8*%
X122710760Y-113521270D03*
X114070800Y-113521270D03*
D21*
X122710760Y-109341280D03*
X114070800Y-109341280D03*
%TD*%
D18*
%TO.C,J1*%
X101777800Y-102539800D03*
D19*
X101777800Y-105079800D03*
X101777800Y-107619800D03*
X101777800Y-110159800D03*
X101777800Y-112699800D03*
X101777800Y-115239800D03*
%TD*%
D18*
%TO.C,J3*%
X134416800Y-97345500D03*
D19*
X134416800Y-99885500D03*
X134416800Y-102425500D03*
X134416800Y-104965500D03*
X134416800Y-107505500D03*
X134416800Y-110045500D03*
X134416800Y-112585500D03*
X134416800Y-115125500D03*
%TD*%
D22*
%TO.C,U4*%
X115639720Y-100697800D03*
X116739720Y-100697800D03*
X117839720Y-100697800D03*
X118939710Y-100697800D03*
X120039710Y-100697800D03*
X121139710Y-100697800D03*
X122239710Y-100697800D03*
X123339730Y-100697800D03*
X124439730Y-100697799D03*
D23*
X111039630Y-101697800D03*
D24*
X125639700Y-111297811D03*
X110139581Y-111297811D03*
D25*
X125639700Y-101697800D03*
%TD*%
M02*
