M48
; DRILL file {KiCad (5.99.0-12605-g2e120528c8)} date Wed Sep 29 20:44:58 2021
; FORMAT={-:-/ absolute / metric / decimal}
; #@! TF.CreationDate,2021-09-29T20:44:58+08:00
; #@! TF.GenerationSoftware,Kicad,Pcbnew,(5.99.0-12605-g2e120528c8)
; #@! TF.FileFunction,MixedPlating,1,2
FMAT,2
METRIC
; #@! TA.AperFunction,Plated,PTH,ViaDrill
T1C0.305
; #@! TA.AperFunction,Plated,PTH,ComponentDrill
T2C0.800
; #@! TA.AperFunction,Plated,PTH,ComponentDrill
T3C1.200
; #@! TA.AperFunction,NonPlated,NPTH,ComponentDrill
T4C0.750
; #@! TA.AperFunction,NonPlated,NPTH,ComponentDrill
T5C1.200
%
G90
G05
T1
X103.504Y-85.56
X103.504Y-86.83
X103.504Y-88.354
X103.504Y-94.704
X103.504Y-98.006
X107.061Y-83.236
X107.264Y-68.021
X107.264Y-69.494
X107.949Y-94.45
X107.949Y-95.339
X107.975Y-79.705
X108.005Y-113.204
X108.331Y-77.546
X108.382Y-93.396
X108.584Y-103.975
X108.584Y-105.245
X108.584Y-106.388
X108.763Y-92.888
X108.838Y-94.45
X108.941Y-71.984
X109.092Y-99.657
X109.093Y-77.572
X109.118Y-78.384
X109.144Y-92.38
X109.854Y-105.245
X109.854Y-106.388
X110.108Y-82.258
X110.108Y-83.147
X110.362Y-99.657
X110.846Y-73.0
X111.987Y-86.347
X112.145Y-97.613
X112.155Y-105.203
X112.572Y-86.881
X112.648Y-88.862
X112.648Y-89.878
X112.725Y-82.042
X112.751Y-76.073
X113.105Y-97.193
X113.156Y-87.312
X113.225Y-92.383
X113.386Y-75.159
X113.461Y-82.004
X113.635Y-100.463
X113.845Y-92.883
X113.866Y-74.197
X114.019Y-81.597
X114.071Y-77.546
X114.146Y-97.168
X114.355Y-93.383
X114.553Y-91.529
X114.681Y-70.104
X114.681Y-76.937
X114.705Y-81.572
X114.884Y-74.701
X115.137Y-85.204
X115.383Y-72.749
X115.442Y-91.529
X115.62Y-82.309
X115.646Y-77.191
X115.795Y-107.043
X115.9Y-75.184
X116.383Y-75.717
X116.421Y-82.182
X116.535Y-101.956
X116.655Y-106.363
X116.712Y-103.848
X116.712Y-104.864
X116.942Y-76.2
X116.992Y-70.104
X117.397Y-73.232
X117.475Y-76.708
X117.728Y-112.357
X117.728Y-113.5
X117.855Y-103.848
X117.855Y-104.864
X117.907Y-75.641
X118.134Y-82.182
X118.387Y-73.689
X118.466Y-70.841
X118.542Y-88.367
X118.618Y-77.724
X118.998Y-112.357
X118.998Y-113.5
X119.075Y-89.433
X119.345Y-103.663
X119.38Y-70.079
X119.405Y-68.402
X119.605Y-91.163
X119.835Y-104.313
X120.145Y-90.523
X120.615Y-90.123
X120.735Y-107.003
X121.106Y-97.701
X121.411Y-103.975
X121.665Y-102.197
X122.3Y-86.982
X122.377Y-70.79
X122.401Y-87.897
X122.63Y-85.458
X122.909Y-87.541
X123.138Y-84.976
X123.749Y-74.473
X123.749Y-75.844
X123.824Y-90.386
X124.129Y-87.439
X124.205Y-95.593
X124.225Y-91.883
X124.408Y-89.878
X124.459Y-97.701
X125.07Y-74.498
X125.07Y-75.87
X126.11Y-82.512
X126.11Y-83.401
X126.999Y-82.512
X127.051Y-103.099
X127.126Y-104.102
X127.38Y-86.881
X127.558Y-96.888
X127.572Y-95.883
X128.105Y-97.383
X128.116Y-96.38
X128.295Y-94.463
X128.65Y-100.419
X128.65Y-101.308
X129.539Y-100.419
X129.539Y-101.308
X129.793Y-88.481
X129.87Y-69.418
X129.896Y-67.945
X130.861Y-106.107
X132.206Y-84.417
X132.206Y-85.306
X132.206Y-86.195
X132.46Y-104.991
X132.46Y-106.261
X132.561Y-74.841
T3
X101.778Y-102.54
X101.778Y-105.08
X101.778Y-107.62
X101.778Y-110.16
X101.778Y-112.7
X101.778Y-115.24
X104.191Y-112.573
X104.191Y-115.113
X131.825Y-77.673
X131.825Y-80.035
X134.365Y-77.673
X134.365Y-80.035
X134.417Y-82.385
X134.417Y-84.925
X134.417Y-87.465
X134.417Y-90.005
X134.417Y-92.545
X134.417Y-95.085
X134.417Y-97.346
X134.417Y-99.885
X134.417Y-102.425
X134.417Y-104.965
X134.417Y-107.505
X134.417Y-110.045
X134.417Y-112.585
X134.417Y-115.125
T4
X115.501Y-109.871
X121.281Y-109.871
T5
X114.84Y-111.698
X122.84Y-111.698
T2
G00X114.071Y-109.191
M15
G01X114.071Y-109.491
M16
G05
G00X114.071Y-113.371
M15
G01X114.071Y-113.671
M16
G05
G00X122.711Y-109.191
M15
G01X122.711Y-109.491
M16
G05
G00X122.711Y-113.371
M15
G01X122.711Y-113.671
M16
G05
T0
M30
