%TF.GenerationSoftware,KiCad,Pcbnew,(5.99.0-12605-g2e120528c8)*%
%TF.CreationDate,2021-09-29T20:44:58+08:00*%
%TF.ProjectId,openmv4,6f70656e-6d76-4342-9e6b-696361645f70,rev?*%
%TF.SameCoordinates,Original*%
%TF.FileFunction,Legend,Top*%
%TF.FilePolarity,Positive*%
%FSLAX46Y46*%
G04 Gerber Fmt 4.6, Leading zero omitted, Abs format (unit mm)*
G04 Created by KiCad (PCBNEW (5.99.0-12605-g2e120528c8)) date 2021-09-29 20:44:58*
%MOMM*%
%LPD*%
G01*
G04 APERTURE LIST*
G04 Aperture macros list*
%AMRoundRect*
0 Rectangle with rounded corners*
0 $1 Rounding radius*
0 $2 $3 $4 $5 $6 $7 $8 $9 X,Y pos of 4 corners*
0 Add a 4 corners polygon primitive as box body*
4,1,4,$2,$3,$4,$5,$6,$7,$8,$9,$2,$3,0*
0 Add four circle primitives for the rounded corners*
1,1,$1+$1,$2,$3*
1,1,$1+$1,$4,$5*
1,1,$1+$1,$6,$7*
1,1,$1+$1,$8,$9*
0 Add four rect primitives between the rounded corners*
20,1,$1+$1,$2,$3,$4,$5,0*
20,1,$1+$1,$4,$5,$6,$7,0*
20,1,$1+$1,$6,$7,$8,$9,0*
20,1,$1+$1,$8,$9,$2,$3,0*%
G04 Aperture macros list end*
%TA.AperFunction,Profile*%
%ADD10C,0.100000*%
%TD*%
%TA.AperFunction,Profile*%
%ADD11C,0.300000*%
%TD*%
%ADD12C,0.150000*%
%ADD13C,0.120000*%
%ADD14C,0.304800*%
%ADD15C,0.350000*%
%ADD16O,0.800000X1.100000*%
%ADD17RoundRect,0.250000X0.450000X-0.262500X0.450000X0.262500X-0.450000X0.262500X-0.450000X-0.262500X0*%
%ADD18RoundRect,0.250000X0.250000X0.475000X-0.250000X0.475000X-0.250000X-0.475000X0.250000X-0.475000X0*%
%ADD19RoundRect,0.250000X-0.250000X-0.475000X0.250000X-0.475000X0.250000X0.475000X-0.250000X0.475000X0*%
%ADD20RoundRect,0.150000X-0.512500X-0.150000X0.512500X-0.150000X0.512500X0.150000X-0.512500X0.150000X0*%
%ADD21R,1.800000X1.800000*%
%ADD22C,1.800000*%
%ADD23R,2.000000X2.000000*%
%ADD24R,1.380010X2.000000*%
%ADD25R,1.100000X1.800000*%
%ADD26R,0.300000X0.900000*%
%ADD27RoundRect,0.250000X-0.475000X0.250000X-0.475000X-0.250000X0.475000X-0.250000X0.475000X0.250000X0*%
%ADD28RoundRect,0.250000X0.475000X-0.250000X0.475000X0.250000X-0.475000X0.250000X-0.475000X-0.250000X0*%
%ADD29RoundRect,0.250000X-0.450000X0.262500X-0.450000X-0.262500X0.450000X-0.262500X0.450000X0.262500X0*%
%ADD30RoundRect,0.243750X0.243750X0.456250X-0.243750X0.456250X-0.243750X-0.456250X0.243750X-0.456250X0*%
%ADD31RoundRect,0.250000X0.262500X0.450000X-0.262500X0.450000X-0.262500X-0.450000X0.262500X-0.450000X0*%
%ADD32RoundRect,0.300000X-0.300000X-0.600000X0.300000X-0.600000X0.300000X0.600000X-0.300000X0.600000X0*%
%ADD33RoundRect,0.300000X-0.300000X-0.700000X0.300000X-0.700000X0.300000X0.700000X-0.300000X0.700000X0*%
%ADD34R,0.300000X1.300000*%
%ADD35R,1.400000X1.200000*%
%ADD36R,0.800000X0.864010*%
%ADD37RoundRect,0.250000X-0.262500X-0.450000X0.262500X-0.450000X0.262500X0.450000X-0.262500X0.450000X0*%
%ADD38RoundRect,0.075000X-0.725000X-0.075000X0.725000X-0.075000X0.725000X0.075000X-0.725000X0.075000X0*%
%ADD39RoundRect,0.075000X-0.075000X-0.725000X0.075000X-0.725000X0.075000X0.725000X-0.075000X0.725000X0*%
%ADD40RoundRect,0.150000X0.512500X0.150000X-0.512500X0.150000X-0.512500X-0.150000X0.512500X-0.150000X0*%
G04 APERTURE END LIST*
D10*
X134716772Y-68757800D02*
G75*
G03*
X134716772Y-68757800I-1635886J0D01*
G01*
D11*
X100634800Y-66382800D02*
X135634800Y-66382800D01*
X135634800Y-116382800D02*
X135634800Y-66382800D01*
X100634800Y-116382800D02*
X100634800Y-66382800D01*
X100634800Y-116382800D02*
X135634800Y-116382800D01*
D10*
X104927400Y-68757800D02*
G75*
G03*
X104927400Y-68757800I-1635886J0D01*
G01*
D12*
X113616752Y-94791180D02*
X113616752Y-95505466D01*
X113569133Y-95648323D01*
X113473895Y-95743561D01*
X113331038Y-95791180D01*
X113235800Y-95791180D01*
X114569133Y-95791180D02*
X114092942Y-95791180D01*
X114092942Y-94791180D01*
X115473895Y-95695942D02*
X115426276Y-95743561D01*
X115283419Y-95791180D01*
X115188180Y-95791180D01*
X115045323Y-95743561D01*
X114950085Y-95648323D01*
X114902466Y-95553085D01*
X114854847Y-95362609D01*
X114854847Y-95219752D01*
X114902466Y-95029276D01*
X114950085Y-94934038D01*
X115045323Y-94838800D01*
X115188180Y-94791180D01*
X115283419Y-94791180D01*
X115426276Y-94838800D01*
X115473895Y-94886419D01*
X116188180Y-94791180D02*
X116188180Y-95505466D01*
X116140561Y-95648323D01*
X116045323Y-95743561D01*
X115902466Y-95791180D01*
X115807228Y-95791180D01*
X117140561Y-95791180D02*
X116664371Y-95791180D01*
X116664371Y-94791180D01*
X118045323Y-95695942D02*
X117997704Y-95743561D01*
X117854847Y-95791180D01*
X117759609Y-95791180D01*
X117616752Y-95743561D01*
X117521514Y-95648323D01*
X117473895Y-95553085D01*
X117426276Y-95362609D01*
X117426276Y-95219752D01*
X117473895Y-95029276D01*
X117521514Y-94934038D01*
X117616752Y-94838800D01*
X117759609Y-94791180D01*
X117854847Y-94791180D01*
X117997704Y-94838800D01*
X118045323Y-94886419D01*
X118759609Y-94791180D02*
X118759609Y-95505466D01*
X118711990Y-95648323D01*
X118616752Y-95743561D01*
X118473895Y-95791180D01*
X118378657Y-95791180D01*
X119711990Y-95791180D02*
X119235800Y-95791180D01*
X119235800Y-94791180D01*
X120616752Y-95695942D02*
X120569133Y-95743561D01*
X120426276Y-95791180D01*
X120331038Y-95791180D01*
X120188180Y-95743561D01*
X120092942Y-95648323D01*
X120045323Y-95553085D01*
X119997704Y-95362609D01*
X119997704Y-95219752D01*
X120045323Y-95029276D01*
X120092942Y-94934038D01*
X120188180Y-94838800D01*
X120331038Y-94791180D01*
X120426276Y-94791180D01*
X120569133Y-94838800D01*
X120616752Y-94886419D01*
X121331038Y-94791180D02*
X121331038Y-95505466D01*
X121283419Y-95648323D01*
X121188180Y-95743561D01*
X121045323Y-95791180D01*
X120950085Y-95791180D01*
X122283419Y-95791180D02*
X121807228Y-95791180D01*
X121807228Y-94791180D01*
X123188180Y-95695942D02*
X123140561Y-95743561D01*
X122997704Y-95791180D01*
X122902466Y-95791180D01*
X122759609Y-95743561D01*
X122664371Y-95648323D01*
X122616752Y-95553085D01*
X122569133Y-95362609D01*
X122569133Y-95219752D01*
X122616752Y-95029276D01*
X122664371Y-94934038D01*
X122759609Y-94838800D01*
X122902466Y-94791180D01*
X122997704Y-94791180D01*
X123140561Y-94838800D01*
X123188180Y-94886419D01*
X112896704Y-122708180D02*
X112325276Y-122708180D01*
X112610990Y-122708180D02*
X112610990Y-121708180D01*
X112515752Y-121851038D01*
X112420514Y-121946276D01*
X112325276Y-121993895D01*
X113230038Y-121708180D02*
X113849085Y-121708180D01*
X113515752Y-122089133D01*
X113658609Y-122089133D01*
X113753847Y-122136752D01*
X113801466Y-122184371D01*
X113849085Y-122279609D01*
X113849085Y-122517704D01*
X113801466Y-122612942D01*
X113753847Y-122660561D01*
X113658609Y-122708180D01*
X113372895Y-122708180D01*
X113277657Y-122660561D01*
X113230038Y-122612942D01*
X114182419Y-121708180D02*
X114849085Y-121708180D01*
X114420514Y-122708180D01*
X115134800Y-121708180D02*
X115801466Y-121708180D01*
X115372895Y-122708180D01*
X116182419Y-122612942D02*
X116230038Y-122660561D01*
X116182419Y-122708180D01*
X116134800Y-122660561D01*
X116182419Y-122612942D01*
X116182419Y-122708180D01*
X116706228Y-122708180D02*
X116896704Y-122708180D01*
X116991942Y-122660561D01*
X117039561Y-122612942D01*
X117134800Y-122470085D01*
X117182419Y-122279609D01*
X117182419Y-121898657D01*
X117134800Y-121803419D01*
X117087180Y-121755800D01*
X116991942Y-121708180D01*
X116801466Y-121708180D01*
X116706228Y-121755800D01*
X116658609Y-121803419D01*
X116610990Y-121898657D01*
X116610990Y-122136752D01*
X116658609Y-122231990D01*
X116706228Y-122279609D01*
X116801466Y-122327228D01*
X116991942Y-122327228D01*
X117087180Y-122279609D01*
X117134800Y-122231990D01*
X117182419Y-122136752D01*
X118087180Y-121708180D02*
X117610990Y-121708180D01*
X117563371Y-122184371D01*
X117610990Y-122136752D01*
X117706228Y-122089133D01*
X117944323Y-122089133D01*
X118039561Y-122136752D01*
X118087180Y-122184371D01*
X118134800Y-122279609D01*
X118134800Y-122517704D01*
X118087180Y-122612942D01*
X118039561Y-122660561D01*
X117944323Y-122708180D01*
X117706228Y-122708180D01*
X117610990Y-122660561D01*
X117563371Y-122612942D01*
X118515752Y-121803419D02*
X118563371Y-121755800D01*
X118658609Y-121708180D01*
X118896704Y-121708180D01*
X118991942Y-121755800D01*
X119039561Y-121803419D01*
X119087180Y-121898657D01*
X119087180Y-121993895D01*
X119039561Y-122136752D01*
X118468133Y-122708180D01*
X119087180Y-122708180D01*
X119658609Y-122136752D02*
X119563371Y-122089133D01*
X119515752Y-122041514D01*
X119468133Y-121946276D01*
X119468133Y-121898657D01*
X119515752Y-121803419D01*
X119563371Y-121755800D01*
X119658609Y-121708180D01*
X119849085Y-121708180D01*
X119944323Y-121755800D01*
X119991942Y-121803419D01*
X120039561Y-121898657D01*
X120039561Y-121946276D01*
X119991942Y-122041514D01*
X119944323Y-122089133D01*
X119849085Y-122136752D01*
X119658609Y-122136752D01*
X119563371Y-122184371D01*
X119515752Y-122231990D01*
X119468133Y-122327228D01*
X119468133Y-122517704D01*
X119515752Y-122612942D01*
X119563371Y-122660561D01*
X119658609Y-122708180D01*
X119849085Y-122708180D01*
X119944323Y-122660561D01*
X119991942Y-122612942D01*
X120039561Y-122517704D01*
X120039561Y-122327228D01*
X119991942Y-122231990D01*
X119944323Y-122184371D01*
X119849085Y-122136752D01*
X121230038Y-122708180D02*
X121230038Y-122041514D01*
X121230038Y-122136752D02*
X121277657Y-122089133D01*
X121372895Y-122041514D01*
X121515752Y-122041514D01*
X121610990Y-122089133D01*
X121658609Y-122184371D01*
X121658609Y-122708180D01*
X121658609Y-122184371D02*
X121706228Y-122089133D01*
X121801466Y-122041514D01*
X121944323Y-122041514D01*
X122039561Y-122089133D01*
X122087180Y-122184371D01*
X122087180Y-122708180D01*
X122563371Y-122708180D02*
X122563371Y-122041514D01*
X122563371Y-121708180D02*
X122515752Y-121755800D01*
X122563371Y-121803419D01*
X122610990Y-121755800D01*
X122563371Y-121708180D01*
X122563371Y-121803419D01*
X123182419Y-122708180D02*
X123087180Y-122660561D01*
X123039561Y-122565323D01*
X123039561Y-121708180D01*
X123515752Y-122660561D02*
X123610990Y-122708180D01*
X123801466Y-122708180D01*
X123896704Y-122660561D01*
X123944323Y-122565323D01*
X123944323Y-122517704D01*
X123896704Y-122422466D01*
X123801466Y-122374847D01*
X123658609Y-122374847D01*
X123563371Y-122327228D01*
X123515752Y-122231990D01*
X123515752Y-122184371D01*
X123563371Y-122089133D01*
X123658609Y-122041514D01*
X123801466Y-122041514D01*
X123896704Y-122089133D01*
X100634800Y-116882800D02*
X100634800Y-123992220D01*
X135634800Y-116882800D02*
X135634800Y-123992220D01*
X100634800Y-123405800D02*
X111559800Y-123405800D01*
X124709800Y-123405800D02*
X135634800Y-123405800D01*
X100634800Y-123405800D02*
X101761304Y-123992221D01*
X100634800Y-123405800D02*
X101761304Y-122819379D01*
X135634800Y-123405800D02*
X134508296Y-122819379D01*
X135634800Y-123405800D02*
X134508296Y-123992221D01*
X137985180Y-96639895D02*
X137985180Y-97211323D01*
X137985180Y-96925609D02*
X136985180Y-96925609D01*
X137128038Y-97020847D01*
X137223276Y-97116085D01*
X137270895Y-97211323D01*
X137985180Y-96163704D02*
X137985180Y-95973228D01*
X137937561Y-95877990D01*
X137889942Y-95830371D01*
X137747085Y-95735133D01*
X137556609Y-95687514D01*
X137175657Y-95687514D01*
X137080419Y-95735133D01*
X137032800Y-95782752D01*
X136985180Y-95877990D01*
X136985180Y-96068466D01*
X137032800Y-96163704D01*
X137080419Y-96211323D01*
X137175657Y-96258942D01*
X137413752Y-96258942D01*
X137508990Y-96211323D01*
X137556609Y-96163704D01*
X137604228Y-96068466D01*
X137604228Y-95877990D01*
X137556609Y-95782752D01*
X137508990Y-95735133D01*
X137413752Y-95687514D01*
X136985180Y-95354180D02*
X136985180Y-94687514D01*
X137985180Y-95116085D01*
X136985180Y-94116085D02*
X136985180Y-94020847D01*
X137032800Y-93925609D01*
X137080419Y-93877990D01*
X137175657Y-93830371D01*
X137366133Y-93782752D01*
X137604228Y-93782752D01*
X137794704Y-93830371D01*
X137889942Y-93877990D01*
X137937561Y-93925609D01*
X137985180Y-94020847D01*
X137985180Y-94116085D01*
X137937561Y-94211323D01*
X137889942Y-94258942D01*
X137794704Y-94306561D01*
X137604228Y-94354180D01*
X137366133Y-94354180D01*
X137175657Y-94306561D01*
X137080419Y-94258942D01*
X137032800Y-94211323D01*
X136985180Y-94116085D01*
X137889942Y-93354180D02*
X137937561Y-93306561D01*
X137985180Y-93354180D01*
X137937561Y-93401800D01*
X137889942Y-93354180D01*
X137985180Y-93354180D01*
X136985180Y-92687514D02*
X136985180Y-92592276D01*
X137032800Y-92497038D01*
X137080419Y-92449419D01*
X137175657Y-92401800D01*
X137366133Y-92354180D01*
X137604228Y-92354180D01*
X137794704Y-92401800D01*
X137889942Y-92449419D01*
X137937561Y-92497038D01*
X137985180Y-92592276D01*
X137985180Y-92687514D01*
X137937561Y-92782752D01*
X137889942Y-92830371D01*
X137794704Y-92877990D01*
X137604228Y-92925609D01*
X137366133Y-92925609D01*
X137175657Y-92877990D01*
X137080419Y-92830371D01*
X137032800Y-92782752D01*
X136985180Y-92687514D01*
X136985180Y-91735133D02*
X136985180Y-91639895D01*
X137032800Y-91544657D01*
X137080419Y-91497038D01*
X137175657Y-91449419D01*
X137366133Y-91401800D01*
X137604228Y-91401800D01*
X137794704Y-91449419D01*
X137889942Y-91497038D01*
X137937561Y-91544657D01*
X137985180Y-91639895D01*
X137985180Y-91735133D01*
X137937561Y-91830371D01*
X137889942Y-91877990D01*
X137794704Y-91925609D01*
X137604228Y-91973228D01*
X137366133Y-91973228D01*
X137175657Y-91925609D01*
X137080419Y-91877990D01*
X137032800Y-91830371D01*
X136985180Y-91735133D01*
X136985180Y-90782752D02*
X136985180Y-90687514D01*
X137032800Y-90592276D01*
X137080419Y-90544657D01*
X137175657Y-90497038D01*
X137366133Y-90449419D01*
X137604228Y-90449419D01*
X137794704Y-90497038D01*
X137889942Y-90544657D01*
X137937561Y-90592276D01*
X137985180Y-90687514D01*
X137985180Y-90782752D01*
X137937561Y-90877990D01*
X137889942Y-90925609D01*
X137794704Y-90973228D01*
X137604228Y-91020847D01*
X137366133Y-91020847D01*
X137175657Y-90973228D01*
X137080419Y-90925609D01*
X137032800Y-90877990D01*
X136985180Y-90782752D01*
X136985180Y-89830371D02*
X136985180Y-89735133D01*
X137032800Y-89639895D01*
X137080419Y-89592276D01*
X137175657Y-89544657D01*
X137366133Y-89497038D01*
X137604228Y-89497038D01*
X137794704Y-89544657D01*
X137889942Y-89592276D01*
X137937561Y-89639895D01*
X137985180Y-89735133D01*
X137985180Y-89830371D01*
X137937561Y-89925609D01*
X137889942Y-89973228D01*
X137794704Y-90020847D01*
X137604228Y-90068466D01*
X137366133Y-90068466D01*
X137175657Y-90020847D01*
X137080419Y-89973228D01*
X137032800Y-89925609D01*
X136985180Y-89830371D01*
X137985180Y-88306561D02*
X137318514Y-88306561D01*
X137413752Y-88306561D02*
X137366133Y-88258942D01*
X137318514Y-88163704D01*
X137318514Y-88020847D01*
X137366133Y-87925609D01*
X137461371Y-87877990D01*
X137985180Y-87877990D01*
X137461371Y-87877990D02*
X137366133Y-87830371D01*
X137318514Y-87735133D01*
X137318514Y-87592276D01*
X137366133Y-87497038D01*
X137461371Y-87449419D01*
X137985180Y-87449419D01*
X137985180Y-86973228D02*
X137318514Y-86973228D01*
X136985180Y-86973228D02*
X137032800Y-87020847D01*
X137080419Y-86973228D01*
X137032800Y-86925609D01*
X136985180Y-86973228D01*
X137080419Y-86973228D01*
X137985180Y-86354180D02*
X137937561Y-86449419D01*
X137842323Y-86497038D01*
X136985180Y-86497038D01*
X137937561Y-86020847D02*
X137985180Y-85925609D01*
X137985180Y-85735133D01*
X137937561Y-85639895D01*
X137842323Y-85592276D01*
X137794704Y-85592276D01*
X137699466Y-85639895D01*
X137651847Y-85735133D01*
X137651847Y-85877990D01*
X137604228Y-85973228D01*
X137508990Y-86020847D01*
X137461371Y-86020847D01*
X137366133Y-85973228D01*
X137318514Y-85877990D01*
X137318514Y-85735133D01*
X137366133Y-85639895D01*
X136134800Y-66382800D02*
X139269220Y-66382800D01*
X136134800Y-116420800D02*
X139269220Y-116420800D01*
X138682800Y-66382800D02*
X138682800Y-84826800D01*
X138682800Y-97976800D02*
X138682800Y-116420800D01*
X138682800Y-66382800D02*
X138096379Y-67509304D01*
X138682800Y-66382800D02*
X139269221Y-67509304D01*
X138682800Y-116420800D02*
X139269221Y-115294296D01*
X138682800Y-116420800D02*
X138096379Y-115294296D01*
D13*
%TO.C,R11*%
X114403200Y-79937664D02*
X114403200Y-79483536D01*
X115873200Y-79937664D02*
X115873200Y-79483536D01*
%TO.C,C18*%
X105849052Y-103528800D02*
X105326548Y-103528800D01*
X105849052Y-102058800D02*
X105326548Y-102058800D01*
%TO.C,C1*%
X105453548Y-95708800D02*
X105976052Y-95708800D01*
X105453548Y-97178800D02*
X105976052Y-97178800D01*
%TO.C,U5*%
X105206800Y-107147800D02*
X106006800Y-107147800D01*
X105206800Y-104027800D02*
X103406800Y-104027800D01*
X105206800Y-104027800D02*
X106006800Y-104027800D01*
X105206800Y-107147800D02*
X104406800Y-107147800D01*
%TO.C,J2*%
X133400800Y-95973800D02*
X133400800Y-81368800D01*
X135432800Y-81368800D02*
X135432800Y-96100800D01*
X133400800Y-96100800D02*
X133400800Y-95973800D01*
X135432800Y-81368800D02*
X133400800Y-81368800D01*
X135432800Y-96100800D02*
X133400800Y-96100800D01*
%TO.C,J5*%
X135380800Y-76657200D02*
X135380800Y-78689200D01*
X130808800Y-76657200D02*
X135380800Y-76657200D01*
X130808800Y-78689200D02*
X130808800Y-76657200D01*
X135253800Y-78689200D02*
X130808800Y-78689200D01*
X135380800Y-78689200D02*
X135253800Y-78689200D01*
%TO.C,C9*%
X105976052Y-97740800D02*
X105453548Y-97740800D01*
X105976052Y-99210800D02*
X105453548Y-99210800D01*
%TO.C,D5*%
X112826800Y-112293400D02*
X109778800Y-112293400D01*
X109778800Y-115138200D02*
X110134400Y-115138200D01*
X109778800Y-115138200D02*
X109778800Y-110413800D01*
X112826800Y-110439200D02*
X112496600Y-110439200D01*
X109778800Y-110413800D02*
X110083600Y-110413800D01*
X112826800Y-115163600D02*
X112547400Y-115163600D01*
X112826800Y-110439200D02*
X112826800Y-115163600D01*
%TO.C,SW1*%
X126669800Y-113334800D02*
X126669800Y-108762800D01*
X126415800Y-108000800D02*
X126796800Y-108000800D01*
X127431800Y-108000800D02*
X126415800Y-108000800D01*
X124383800Y-108762800D02*
X124383800Y-113334800D01*
X126669800Y-108762800D02*
X124383800Y-108762800D01*
X123748800Y-108000800D02*
X124891800Y-108000800D01*
X127431800Y-108000800D02*
X127431800Y-114096800D01*
X124383800Y-113334800D02*
X126669800Y-113334800D01*
X123748800Y-114096800D02*
X123748800Y-108000800D01*
X123748800Y-114096800D02*
X124891800Y-114096800D01*
X127431800Y-114096800D02*
X126415800Y-114096800D01*
%TO.C,F1*%
X126288800Y-71907400D02*
X126288800Y-70383400D01*
X110032800Y-70129400D02*
X110032800Y-71907400D01*
X126288800Y-68097400D02*
X126288800Y-67589400D01*
X110032800Y-67589400D02*
X110032800Y-68097400D01*
X110032800Y-71907400D02*
X112064800Y-71907400D01*
X126288800Y-67589400D02*
X110032800Y-67589400D01*
X124510800Y-71907400D02*
X126288800Y-71907400D01*
X124764800Y-70637400D02*
G75*
G03*
X124764800Y-70637400I-254000J0D01*
G01*
%TO.C,J4*%
X105206800Y-111556800D02*
X105206800Y-116128800D01*
X103174800Y-116001800D02*
X103174800Y-111556800D01*
X103174800Y-116128800D02*
X103174800Y-116001800D01*
X105206800Y-116128800D02*
X103174800Y-116128800D01*
X103174800Y-111556800D02*
X105206800Y-111556800D01*
%TO.C,C2*%
X110415400Y-79469348D02*
X110415400Y-79991852D01*
X111885400Y-79469348D02*
X111885400Y-79991852D01*
%TO.C,C20*%
X107169852Y-71274000D02*
X106647348Y-71274000D01*
X107169852Y-72744000D02*
X106647348Y-72744000D01*
%TO.C,C5*%
X113307800Y-103182052D02*
X113307800Y-102659548D01*
X111837800Y-103182052D02*
X111837800Y-102659548D01*
%TO.C,R7*%
X118797400Y-79483536D02*
X118797400Y-79937664D01*
X120267400Y-79483536D02*
X120267400Y-79937664D01*
%TO.C,C12*%
X123925000Y-102659548D02*
X123925000Y-103182052D01*
X122455000Y-102659548D02*
X122455000Y-103182052D01*
%TO.C,R13*%
X128347800Y-107846864D02*
X128347800Y-107392736D01*
X129817800Y-107846864D02*
X129817800Y-107392736D01*
%TO.C,J6*%
X130808800Y-79019400D02*
X135380800Y-79019400D01*
X135380800Y-81051400D02*
X135253800Y-81051400D01*
X130808800Y-81051400D02*
X130808800Y-79019400D01*
X135380800Y-79019400D02*
X135380800Y-81051400D01*
X135253800Y-81051400D02*
X130808800Y-81051400D01*
%TO.C,D2*%
X104174000Y-78745200D02*
X101489000Y-78745200D01*
X104174000Y-80665200D02*
X104174000Y-78745200D01*
X101489000Y-80665200D02*
X104174000Y-80665200D01*
%TO.C,C4*%
X126058600Y-103182052D02*
X126058600Y-102659548D01*
X124588600Y-103182052D02*
X124588600Y-102659548D01*
%TO.C,R3*%
X106272064Y-80440200D02*
X105817936Y-80440200D01*
X106272064Y-78970200D02*
X105817936Y-78970200D01*
%TO.C,R2*%
X106272064Y-76811200D02*
X105817936Y-76811200D01*
X106272064Y-78281200D02*
X105817936Y-78281200D01*
%TO.C,U8*%
X122706800Y-114599800D02*
X122706800Y-116123800D01*
X114070800Y-110535800D02*
X114070800Y-112313800D01*
X122706800Y-110535800D02*
X122706800Y-112313800D01*
X114070800Y-116123800D02*
X114070800Y-114599800D01*
X122706800Y-116123800D02*
X114324800Y-116123800D01*
X114324800Y-116123800D02*
X114070800Y-116123800D01*
%TO.C,C13*%
X105976052Y-88088800D02*
X105453548Y-88088800D01*
X105976052Y-89558800D02*
X105453548Y-89558800D01*
%TO.C,C19*%
X129177148Y-72693200D02*
X129699652Y-72693200D01*
X129177148Y-71223200D02*
X129699652Y-71223200D01*
%TO.C,C7*%
X105453548Y-84024800D02*
X105976052Y-84024800D01*
X105453548Y-85494800D02*
X105976052Y-85494800D01*
%TO.C,C16*%
X105087052Y-109116800D02*
X104564548Y-109116800D01*
X105087052Y-107646800D02*
X104564548Y-107646800D01*
%TO.C,C8*%
X111199600Y-102659548D02*
X111199600Y-103182052D01*
X109729600Y-102659548D02*
X109729600Y-103182052D01*
%TO.C,C14*%
X113946000Y-102659548D02*
X113946000Y-103182052D01*
X115416000Y-102659548D02*
X115416000Y-103182052D01*
%TO.C,D3*%
X104174000Y-80904200D02*
X101489000Y-80904200D01*
X104174000Y-82824200D02*
X104174000Y-80904200D01*
X101489000Y-82824200D02*
X104174000Y-82824200D01*
%TO.C,C10*%
X129487348Y-87247400D02*
X130009852Y-87247400D01*
X129487348Y-85777400D02*
X130009852Y-85777400D01*
%TO.C,R17*%
X107449800Y-74595736D02*
X107449800Y-75049864D01*
X108919800Y-74595736D02*
X108919800Y-75049864D01*
%TO.C,R9*%
X129919464Y-88444400D02*
X129465336Y-88444400D01*
X129919464Y-89914400D02*
X129465336Y-89914400D01*
%TO.C,R1*%
X116384400Y-79932264D02*
X116384400Y-79478136D01*
X117854400Y-79932264D02*
X117854400Y-79478136D01*
%TO.C,Y1*%
X103124000Y-92989400D02*
X103124000Y-93497400D01*
X103124000Y-93497400D02*
X103632000Y-93497400D01*
X103301800Y-89916000D02*
X103301800Y-93319600D01*
X107365800Y-93319600D02*
X107365800Y-89966800D01*
X103327200Y-93319600D02*
X107365800Y-93319600D01*
X107365800Y-89916000D02*
X103301800Y-89916000D01*
%TO.C,R6*%
X124229800Y-79483536D02*
X124229800Y-79937664D01*
X122759800Y-79483536D02*
X122759800Y-79937664D01*
%TO.C,R5*%
X124766400Y-79483536D02*
X124766400Y-79937664D01*
X126236400Y-79483536D02*
X126236400Y-79937664D01*
%TO.C,C11*%
X105453548Y-93676800D02*
X105976052Y-93676800D01*
X105453548Y-95146800D02*
X105976052Y-95146800D01*
%TO.C,R4*%
X106272064Y-82599200D02*
X105817936Y-82599200D01*
X106272064Y-81129200D02*
X105817936Y-81129200D01*
%TO.C,U7*%
X103057300Y-73217600D02*
X103857300Y-73217600D01*
X103057300Y-76337600D02*
X103857300Y-76337600D01*
X103057300Y-73217600D02*
X101257300Y-73217600D01*
X103057300Y-76337600D02*
X102257300Y-76337600D01*
%TO.C,R12*%
X113892000Y-79937664D02*
X113892000Y-79483536D01*
X112422000Y-79937664D02*
X112422000Y-79483536D01*
%TO.C,L1*%
X107365800Y-99618800D02*
X107365800Y-100990400D01*
X104825800Y-99618800D02*
X105816400Y-99618800D01*
X107365800Y-100990400D02*
X104825800Y-100990400D01*
X104825800Y-100990400D02*
X104825800Y-99618800D01*
X105816400Y-99618800D02*
X107365800Y-99618800D01*
%TO.C,C17*%
X128347800Y-110914548D02*
X128347800Y-111437052D01*
X129817800Y-110914548D02*
X129817800Y-111437052D01*
%TO.C,J1*%
X100761800Y-116255800D02*
X100761800Y-101523800D01*
X100761800Y-101523800D02*
X102793800Y-101523800D01*
X102793800Y-101650800D02*
X102793800Y-116255800D01*
X100761800Y-116255800D02*
X102793800Y-116255800D01*
X102793800Y-101523800D02*
X102793800Y-101650800D01*
%TO.C,R8*%
X129465336Y-90400200D02*
X129919464Y-90400200D01*
X129465336Y-91870200D02*
X129919464Y-91870200D01*
%TO.C,R16*%
X105439800Y-74595736D02*
X105439800Y-75049864D01*
X106909800Y-74595736D02*
X106909800Y-75049864D01*
%TO.C,R15*%
X128876800Y-74525136D02*
X128876800Y-74979264D01*
X127406800Y-74525136D02*
X127406800Y-74979264D01*
%TO.C,U2*%
X111024800Y-98492800D02*
X111024800Y-97792800D01*
X124544800Y-98492800D02*
X125244800Y-98492800D01*
X125244800Y-84272800D02*
X125244800Y-84972800D01*
X111024800Y-84972800D02*
X109659800Y-84972800D01*
X111724800Y-98492800D02*
X111024800Y-98492800D01*
X125244800Y-98492800D02*
X125244800Y-97792800D01*
X124544800Y-84272800D02*
X125244800Y-84272800D01*
X111024800Y-84272800D02*
X111024800Y-84972800D01*
X111724800Y-84272800D02*
X111024800Y-84272800D01*
%TO.C,R10*%
X122248600Y-79483536D02*
X122248600Y-79937664D01*
X120778600Y-79483536D02*
X120778600Y-79937664D01*
%TO.C,C6*%
X105453548Y-86056800D02*
X105976052Y-86056800D01*
X105453548Y-87526800D02*
X105976052Y-87526800D01*
%TO.C,J3*%
X133400800Y-116141500D02*
X133400800Y-96304100D01*
X133400800Y-96329500D02*
X135432800Y-96329500D01*
X133400800Y-116141500D02*
X135432800Y-116141500D01*
X135432800Y-96329500D02*
X135432800Y-116141500D01*
%TO.C,C3*%
X130009852Y-83745400D02*
X129487348Y-83745400D01*
X130009852Y-85215400D02*
X129487348Y-85215400D01*
%TO.C,R14*%
X130859800Y-74525736D02*
X130859800Y-74979864D01*
X129389800Y-74525736D02*
X129389800Y-74979864D01*
%TO.C,U6*%
X133221800Y-76324800D02*
X132421800Y-76324800D01*
X133221800Y-76324800D02*
X135021800Y-76324800D01*
X133221800Y-73204800D02*
X134021800Y-73204800D01*
X133221800Y-73204800D02*
X132421800Y-73204800D01*
%TO.C,D4*%
X109524800Y-110439200D02*
X109524800Y-115163600D01*
X106476800Y-115138200D02*
X106476800Y-110413800D01*
X106476800Y-110413800D02*
X106781600Y-110413800D01*
X106476800Y-115138200D02*
X106832400Y-115138200D01*
X109524800Y-115163600D02*
X109245400Y-115163600D01*
X109524800Y-112293400D02*
X106476800Y-112293400D01*
X109524800Y-110439200D02*
X109194600Y-110439200D01*
%TO.C,C15*%
X105087052Y-109678800D02*
X104564548Y-109678800D01*
X105087052Y-111148800D02*
X104564548Y-111148800D01*
%TO.C,D1*%
X104174000Y-76586200D02*
X101489000Y-76586200D01*
X104174000Y-78506200D02*
X104174000Y-76586200D01*
X101489000Y-78506200D02*
X104174000Y-78506200D01*
%TD*%
D14*
X125069600Y-75869800D03*
X123748800Y-74472800D03*
X107264200Y-69494400D03*
X125069600Y-74498200D03*
X108583800Y-105244800D03*
X128649800Y-100418800D03*
X103503800Y-88353800D03*
X132205800Y-86194800D03*
X110845600Y-72999600D03*
X129538800Y-101307800D03*
X114681000Y-70104000D03*
X132459800Y-106260800D03*
X116992400Y-70104000D03*
X109118400Y-78384400D03*
X126998800Y-82511800D03*
X112647800Y-89877800D03*
X116711800Y-103847800D03*
X126109800Y-82511800D03*
X117727800Y-112356800D03*
X121664800Y-102196800D03*
X108583800Y-106387800D03*
X124204800Y-95592800D03*
X121410800Y-103974800D03*
X107264200Y-68021200D03*
X126109800Y-83400800D03*
X117854800Y-104863800D03*
X108583800Y-103974800D03*
X129870200Y-69418200D03*
X109091800Y-99656800D03*
X110107800Y-83146800D03*
X129895600Y-67945000D03*
X132205800Y-85305800D03*
X118997800Y-112356800D03*
X108837800Y-94449800D03*
X112647800Y-88861800D03*
X110107800Y-82257800D03*
X103503800Y-85559800D03*
X109853800Y-106387800D03*
X103503800Y-94703800D03*
X116711800Y-104863800D03*
X117854800Y-103847800D03*
X128649800Y-101307800D03*
X118997800Y-113499800D03*
X114552800Y-91528800D03*
X109093000Y-77571600D03*
X132205800Y-84416800D03*
X103503800Y-86829800D03*
X129538800Y-100418800D03*
X110361800Y-99656800D03*
X107948800Y-94449800D03*
X115441800Y-91528800D03*
X117727800Y-113499800D03*
X107948800Y-95338800D03*
X127125800Y-104101800D03*
X109853800Y-105244800D03*
X103503800Y-98005800D03*
X132459800Y-104990800D03*
X128295400Y-94462600D03*
X123748800Y-75844400D03*
X127050800Y-103098600D03*
X130860800Y-106106800D03*
X129792800Y-88480800D03*
X116535200Y-101955600D03*
X112154800Y-105202800D03*
X112144800Y-97612800D03*
X116654800Y-106362800D03*
X120734800Y-107002800D03*
X119405400Y-68402200D03*
X119380000Y-70078600D03*
X122377200Y-70789800D03*
X118465600Y-70840600D03*
X108940600Y-71983600D03*
X114071400Y-77546200D03*
X114019400Y-81597400D03*
X114705200Y-81572000D03*
X114681000Y-76936600D03*
X118618000Y-77724000D03*
X118541800Y-88366600D03*
X115619600Y-82308600D03*
X115646200Y-77190600D03*
X118134200Y-82181600D03*
X117475000Y-76708000D03*
X116941600Y-76200000D03*
X113105000Y-97193000D03*
X113155800Y-87312400D03*
X118387430Y-73688970D03*
X119075200Y-89433400D03*
X117906800Y-75641200D03*
X117396830Y-73231770D03*
X112571600Y-86880600D03*
X116420900Y-82181700D03*
X116382800Y-75717400D03*
X114146400Y-97167600D03*
X115900200Y-75184000D03*
X111987400Y-86347200D03*
X115382800Y-72749170D03*
X120144800Y-90522800D03*
X114884200Y-74701400D03*
X112725200Y-82042000D03*
X112750600Y-76073000D03*
X120614800Y-90122800D03*
X113866230Y-74196970D03*
X113385600Y-75158600D03*
X113460600Y-82003800D03*
X115137000Y-85204200D03*
X113224800Y-92382800D03*
X113844800Y-92882800D03*
X114354800Y-93382800D03*
X108004610Y-113203990D03*
X124224800Y-91882800D03*
X124128600Y-87439400D03*
X127379800Y-86880600D03*
X127572400Y-95882800D03*
X128116400Y-96380200D03*
X127557600Y-96888200D03*
X128104800Y-97382800D03*
X119344800Y-103662800D03*
X119834800Y-104312800D03*
X113634800Y-100462800D03*
X132561400Y-74841000D03*
X109143800Y-92379800D03*
X108331000Y-77546200D03*
X108762800Y-92887800D03*
X107975400Y-79705200D03*
X108381800Y-93395800D03*
X107061000Y-83235800D03*
X123138000Y-84975600D03*
X122630000Y-85458200D03*
X122401400Y-87896600D03*
X123823800Y-90385800D03*
X124408000Y-89877800D03*
X122299800Y-86982200D03*
X121106000Y-97701000D03*
X124458800Y-97701000D03*
X122909400Y-87541000D03*
X115794800Y-107042800D03*
X119604800Y-91162800D03*
D15*
X134416800Y-95084800D03*
X134416800Y-92544800D03*
X134416800Y-90004800D03*
X134416800Y-87464800D03*
X134416800Y-84924800D03*
X134416800Y-82384800D03*
X134364800Y-77673200D03*
X131824800Y-77673200D03*
X104190800Y-115112800D03*
X104190800Y-112572800D03*
X134364800Y-80035400D03*
X131824800Y-80035400D03*
X115500770Y-109871290D03*
X121280790Y-109871290D03*
D16*
X122710760Y-113521270D03*
X114070800Y-113521270D03*
X122710760Y-109341280D03*
X114070800Y-109341280D03*
D15*
X101777800Y-102539800D03*
X101777800Y-105079800D03*
X101777800Y-107619800D03*
X101777800Y-110159800D03*
X101777800Y-112699800D03*
X101777800Y-115239800D03*
X134416800Y-97345500D03*
X134416800Y-99885500D03*
X134416800Y-102425500D03*
X134416800Y-104965500D03*
X134416800Y-107505500D03*
X134416800Y-110045500D03*
X134416800Y-112585500D03*
X134416800Y-115125500D03*
X114839750Y-111697780D03*
X122839730Y-111697780D03*
%LPC*%
D17*
%TO.C,R11*%
X115138200Y-80623100D03*
X115138200Y-78798100D03*
%TD*%
D18*
%TO.C,C18*%
X106537800Y-102793800D03*
X104637800Y-102793800D03*
%TD*%
D19*
%TO.C,C1*%
X104764800Y-96443800D03*
X106664800Y-96443800D03*
%TD*%
D20*
%TO.C,U5*%
X104069300Y-104637800D03*
X104069300Y-105587800D03*
X104069300Y-106537800D03*
X106344300Y-106537800D03*
X106344300Y-104637800D03*
%TD*%
D21*
%TO.C,J2*%
X134416800Y-95084800D03*
D22*
X134416800Y-92544800D03*
X134416800Y-90004800D03*
X134416800Y-87464800D03*
X134416800Y-84924800D03*
X134416800Y-82384800D03*
%TD*%
D21*
%TO.C,J5*%
X134364800Y-77673200D03*
D22*
X131824800Y-77673200D03*
%TD*%
D18*
%TO.C,C9*%
X106664800Y-98475800D03*
X104764800Y-98475800D03*
%TD*%
D23*
%TO.C,D5*%
X111306610Y-110722950D03*
X111306610Y-115123090D03*
%TD*%
D24*
%TO.C,SW1*%
X125631780Y-115000780D03*
X125631780Y-107000800D03*
%TD*%
D25*
%TO.C,F1*%
X126035410Y-69195090D03*
X110235390Y-69195090D03*
D26*
X123885380Y-71895030D03*
X123385380Y-71895030D03*
X122885380Y-71895030D03*
X122385380Y-71895030D03*
X121885380Y-71895030D03*
X121385380Y-71895030D03*
X120885380Y-71895030D03*
X120385380Y-71895030D03*
X119885390Y-71895030D03*
X119385390Y-71895030D03*
X118885390Y-71895030D03*
X118385390Y-71895030D03*
X117885390Y-71895030D03*
X117385360Y-71895030D03*
X116885370Y-71895030D03*
X116385370Y-71895030D03*
X115885370Y-71895030D03*
X115385370Y-71895030D03*
X114885370Y-71895030D03*
X114385370Y-71895030D03*
X113885370Y-71895030D03*
X113385370Y-71895030D03*
X112885370Y-71895030D03*
X112385370Y-71895030D03*
%TD*%
D21*
%TO.C,J4*%
X104190800Y-115112800D03*
D22*
X104190800Y-112572800D03*
%TD*%
D27*
%TO.C,C2*%
X111150400Y-78780600D03*
X111150400Y-80680600D03*
%TD*%
D18*
%TO.C,C20*%
X107858600Y-72009000D03*
X105958600Y-72009000D03*
%TD*%
D28*
%TO.C,C5*%
X112572800Y-103870800D03*
X112572800Y-101970800D03*
%TD*%
D29*
%TO.C,R7*%
X119532400Y-78798100D03*
X119532400Y-80623100D03*
%TD*%
D27*
%TO.C,C12*%
X123190000Y-101970800D03*
X123190000Y-103870800D03*
%TD*%
D17*
%TO.C,R13*%
X129082800Y-108532300D03*
X129082800Y-106707300D03*
%TD*%
D21*
%TO.C,J6*%
X134364800Y-80035400D03*
D22*
X131824800Y-80035400D03*
%TD*%
D30*
%TO.C,D2*%
X103426500Y-79705200D03*
X101551500Y-79705200D03*
%TD*%
D28*
%TO.C,C4*%
X125323600Y-103870800D03*
X125323600Y-101970800D03*
%TD*%
D31*
%TO.C,R3*%
X106957500Y-79705200D03*
X105132500Y-79705200D03*
%TD*%
%TO.C,R2*%
X106957500Y-77546200D03*
X105132500Y-77546200D03*
%TD*%
D32*
%TO.C,U8*%
X122710760Y-113521270D03*
X114070800Y-113521270D03*
D33*
X122710760Y-109341280D03*
X114070800Y-109341280D03*
D34*
X114990790Y-108272790D03*
X115830770Y-108272760D03*
X117140850Y-108272810D03*
X118140850Y-108272810D03*
X118640720Y-108272790D03*
X119640460Y-108272810D03*
X120940760Y-108272690D03*
X121792400Y-108272690D03*
X121440690Y-108272710D03*
X120630760Y-108272740D03*
X120140840Y-108272810D03*
X119140840Y-108272810D03*
X117640720Y-108272790D03*
X116640720Y-108272810D03*
X116150680Y-108272690D03*
X115340800Y-108272790D03*
%TD*%
D18*
%TO.C,C13*%
X106664800Y-88823800D03*
X104764800Y-88823800D03*
%TD*%
D19*
%TO.C,C19*%
X128488400Y-71958200D03*
X130388400Y-71958200D03*
%TD*%
%TO.C,C7*%
X104764800Y-84759800D03*
X106664800Y-84759800D03*
%TD*%
D18*
%TO.C,C16*%
X105775800Y-108381800D03*
X103875800Y-108381800D03*
%TD*%
D27*
%TO.C,C8*%
X110464600Y-101970800D03*
X110464600Y-103870800D03*
%TD*%
%TO.C,C14*%
X114681000Y-101970800D03*
X114681000Y-103870800D03*
%TD*%
D30*
%TO.C,D3*%
X103426500Y-81864200D03*
X101551500Y-81864200D03*
%TD*%
D19*
%TO.C,C10*%
X128798600Y-86512400D03*
X130698600Y-86512400D03*
%TD*%
D29*
%TO.C,R17*%
X108184800Y-73910300D03*
X108184800Y-75735300D03*
%TD*%
D31*
%TO.C,R9*%
X130604900Y-89179400D03*
X128779900Y-89179400D03*
%TD*%
D17*
%TO.C,R1*%
X117119400Y-80617700D03*
X117119400Y-78792700D03*
%TD*%
D35*
%TO.C,Y1*%
X104233820Y-92492530D03*
X104233880Y-90742620D03*
X106433770Y-92492530D03*
X106433720Y-90742570D03*
%TD*%
D29*
%TO.C,R6*%
X123494800Y-78798100D03*
X123494800Y-80623100D03*
%TD*%
%TO.C,R5*%
X125501400Y-78798100D03*
X125501400Y-80623100D03*
%TD*%
D19*
%TO.C,C11*%
X104764800Y-94411800D03*
X106664800Y-94411800D03*
%TD*%
D31*
%TO.C,R4*%
X106957500Y-81864200D03*
X105132500Y-81864200D03*
%TD*%
D20*
%TO.C,U7*%
X101919800Y-73827600D03*
X101919800Y-74777600D03*
X101919800Y-75727600D03*
X104194800Y-75727600D03*
X104194800Y-73827600D03*
%TD*%
D17*
%TO.C,R12*%
X113157000Y-80623100D03*
X113157000Y-78798100D03*
%TD*%
D36*
%TO.C,L1*%
X106781960Y-100338920D03*
X105382160Y-100338920D03*
%TD*%
D27*
%TO.C,C17*%
X129082800Y-110225800D03*
X129082800Y-112125800D03*
%TD*%
D21*
%TO.C,J1*%
X101777800Y-102539800D03*
D22*
X101777800Y-105079800D03*
X101777800Y-107619800D03*
X101777800Y-110159800D03*
X101777800Y-112699800D03*
X101777800Y-115239800D03*
%TD*%
D37*
%TO.C,R8*%
X128779900Y-91135200D03*
X130604900Y-91135200D03*
%TD*%
D29*
%TO.C,R16*%
X106174800Y-73910300D03*
X106174800Y-75735300D03*
%TD*%
%TO.C,R15*%
X128141800Y-73839700D03*
X128141800Y-75664700D03*
%TD*%
D38*
%TO.C,U2*%
X110459800Y-85382800D03*
X110459800Y-85882800D03*
X110459800Y-86382800D03*
X110459800Y-86882800D03*
X110459800Y-87382800D03*
X110459800Y-87882800D03*
X110459800Y-88382800D03*
X110459800Y-88882800D03*
X110459800Y-89382800D03*
X110459800Y-89882800D03*
X110459800Y-90382800D03*
X110459800Y-90882800D03*
X110459800Y-91382800D03*
X110459800Y-91882800D03*
X110459800Y-92382800D03*
X110459800Y-92882800D03*
X110459800Y-93382800D03*
X110459800Y-93882800D03*
X110459800Y-94382800D03*
X110459800Y-94882800D03*
X110459800Y-95382800D03*
X110459800Y-95882800D03*
X110459800Y-96382800D03*
X110459800Y-96882800D03*
X110459800Y-97382800D03*
D39*
X112134800Y-99057800D03*
X112634800Y-99057800D03*
X113134800Y-99057800D03*
X113634800Y-99057800D03*
X114134800Y-99057800D03*
X114634800Y-99057800D03*
X115134800Y-99057800D03*
X115634800Y-99057800D03*
X116134800Y-99057800D03*
X116634800Y-99057800D03*
X117134800Y-99057800D03*
X117634800Y-99057800D03*
X118134800Y-99057800D03*
X118634800Y-99057800D03*
X119134800Y-99057800D03*
X119634800Y-99057800D03*
X120134800Y-99057800D03*
X120634800Y-99057800D03*
X121134800Y-99057800D03*
X121634800Y-99057800D03*
X122134800Y-99057800D03*
X122634800Y-99057800D03*
X123134800Y-99057800D03*
X123634800Y-99057800D03*
X124134800Y-99057800D03*
D38*
X125809800Y-97382800D03*
X125809800Y-96882800D03*
X125809800Y-96382800D03*
X125809800Y-95882800D03*
X125809800Y-95382800D03*
X125809800Y-94882800D03*
X125809800Y-94382800D03*
X125809800Y-93882800D03*
X125809800Y-93382800D03*
X125809800Y-92882800D03*
X125809800Y-92382800D03*
X125809800Y-91882800D03*
X125809800Y-91382800D03*
X125809800Y-90882800D03*
X125809800Y-90382800D03*
X125809800Y-89882800D03*
X125809800Y-89382800D03*
X125809800Y-88882800D03*
X125809800Y-88382800D03*
X125809800Y-87882800D03*
X125809800Y-87382800D03*
X125809800Y-86882800D03*
X125809800Y-86382800D03*
X125809800Y-85882800D03*
X125809800Y-85382800D03*
D39*
X124134800Y-83707800D03*
X123634800Y-83707800D03*
X123134800Y-83707800D03*
X122634800Y-83707800D03*
X122134800Y-83707800D03*
X121634800Y-83707800D03*
X121134800Y-83707800D03*
X120634800Y-83707800D03*
X120134800Y-83707800D03*
X119634800Y-83707800D03*
X119134800Y-83707800D03*
X118634800Y-83707800D03*
X118134800Y-83707800D03*
X117634800Y-83707800D03*
X117134800Y-83707800D03*
X116634800Y-83707800D03*
X116134800Y-83707800D03*
X115634800Y-83707800D03*
X115134800Y-83707800D03*
X114634800Y-83707800D03*
X114134800Y-83707800D03*
X113634800Y-83707800D03*
X113134800Y-83707800D03*
X112634800Y-83707800D03*
X112134800Y-83707800D03*
%TD*%
D29*
%TO.C,R10*%
X121513600Y-78798100D03*
X121513600Y-80623100D03*
%TD*%
D19*
%TO.C,C6*%
X104764800Y-86791800D03*
X106664800Y-86791800D03*
%TD*%
D21*
%TO.C,J3*%
X134416800Y-97345500D03*
D22*
X134416800Y-99885500D03*
X134416800Y-102425500D03*
X134416800Y-104965500D03*
X134416800Y-107505500D03*
X134416800Y-110045500D03*
X134416800Y-112585500D03*
X134416800Y-115125500D03*
%TD*%
D18*
%TO.C,C3*%
X130698600Y-84480400D03*
X128798600Y-84480400D03*
%TD*%
D29*
%TO.C,R14*%
X130124800Y-73840300D03*
X130124800Y-75665300D03*
%TD*%
D40*
%TO.C,U6*%
X134359300Y-75714800D03*
X134359300Y-74764800D03*
X134359300Y-73814800D03*
X132084300Y-73814800D03*
X132084300Y-75714800D03*
%TD*%
D23*
%TO.C,D4*%
X108004610Y-110722950D03*
X108004610Y-115123090D03*
%TD*%
D18*
%TO.C,C15*%
X105775800Y-110413800D03*
X103875800Y-110413800D03*
%TD*%
D30*
%TO.C,D1*%
X103426500Y-77546200D03*
X101551500Y-77546200D03*
%TD*%
M02*
