M48
; DRILL file {KiCad (5.99.0-12605-g2e120528c8)} date Wed Sep 29 20:44:58 2021
; FORMAT={-:-/ absolute / metric / decimal}
; #@! TF.CreationDate,2021-09-29T20:44:58+08:00
; #@! TF.GenerationSoftware,Kicad,Pcbnew,(5.99.0-12605-g2e120528c8)
; #@! TF.FileFunction,MixedPlating,1,2
FMAT,2
METRIC
; #@! TA.AperFunction,Plated,PTH,ViaDrill
T1C0.305
; #@! TA.AperFunction,Plated,PTH,ComponentDrill
T2C0.800
; #@! TA.AperFunction,Plated,PTH,ComponentDrill
T3C1.200
; #@! TA.AperFunction,NonPlated,NPTH,ComponentDrill
T4C0.750
; #@! TA.AperFunction,NonPlated,NPTH,ComponentDrill
T5C1.200
%
G90
G05
T1
X-18.543Y9.59
X-18.543Y8.32
X-18.543Y6.796
X-18.543Y0.446
X-18.543Y-2.856
X-14.985Y11.914
X-14.782Y27.129
X-14.782Y25.656
X-14.098Y0.7
X-14.098Y-0.189
X-14.071Y15.445
X-14.042Y-18.054
X-13.715Y17.604
X-13.664Y1.754
X-13.462Y-8.825
X-13.462Y-10.095
X-13.462Y-11.238
X-13.284Y2.262
X-13.208Y0.7
X-13.106Y23.166
X-12.954Y-4.507
X-12.953Y17.578
X-12.928Y16.766
X-12.902Y2.77
X-12.192Y-10.095
X-12.192Y-11.238
X-11.938Y12.892
X-11.938Y12.003
X-11.684Y-4.507
X-11.201Y22.15
X-10.059Y8.803
X-9.902Y-2.463
X-9.891Y-10.053
X-9.475Y8.269
X-9.399Y6.288
X-9.399Y5.272
X-9.321Y13.108
X-9.296Y19.077
X-8.941Y-2.043
X-8.89Y7.838
X-8.822Y2.767
X-8.661Y19.991
X-8.586Y13.146
X-8.412Y-5.313
X-8.201Y2.267
X-8.18Y20.953
X-8.027Y13.553
X-7.975Y17.604
X-7.9Y-2.018
X-7.691Y1.767
X-7.494Y3.621
X-7.365Y25.046
X-7.365Y18.213
X-7.341Y13.578
X-7.162Y20.449
X-6.909Y9.946
X-6.663Y22.401
X-6.604Y3.621
X-6.427Y12.841
X-6.4Y17.959
X-6.252Y-11.893
X-6.146Y19.966
X-5.663Y19.433
X-5.625Y12.968
X-5.511Y-6.806
X-5.391Y-11.213
X-5.334Y-8.698
X-5.334Y-9.714
X-5.105Y18.95
X-5.054Y25.046
X-4.649Y21.918
X-4.571Y18.442
X-4.319Y-17.207
X-4.319Y-18.35
X-4.191Y-8.698
X-4.191Y-9.714
X-4.139Y19.509
X-3.912Y12.968
X-3.659Y21.461
X-3.581Y24.309
X-3.504Y6.783
X-3.428Y17.426
X-3.048Y-17.207
X-3.048Y-18.35
X-2.971Y5.717
X-2.701Y-8.513
X-2.666Y25.071
X-2.641Y26.748
X-2.442Y3.987
X-2.212Y-9.163
X-1.901Y4.627
X-1.431Y5.027
X-1.311Y-11.853
X-0.94Y-2.551
X-0.635Y-8.825
X-0.382Y-7.047
X0.254Y8.168
X0.331Y24.36
X0.355Y7.253
X0.584Y9.692
X0.863Y7.609
X1.092Y10.174
X1.702Y20.677
X1.702Y19.306
X1.777Y4.764
X2.082Y7.711
X2.159Y-0.443
X2.179Y3.267
X2.362Y5.272
X2.413Y-2.551
X3.023Y20.652
X3.023Y19.28
X4.063Y12.638
X4.063Y11.749
X4.952Y12.638
X5.005Y-7.949
X5.079Y-8.952
X5.333Y8.269
X5.511Y-1.738
X5.526Y-0.733
X6.058Y-2.233
X6.07Y-1.23
X6.249Y0.687
X6.603Y-5.269
X6.603Y-6.158
X7.492Y-5.269
X7.492Y-6.158
X7.746Y6.669
X7.824Y25.732
X7.849Y27.205
X8.814Y-10.957
X10.159Y10.733
X10.159Y9.844
X10.159Y8.955
X10.413Y-9.841
X10.413Y-11.111
X10.515Y20.309
T3
X-20.268Y-7.39
X-20.268Y-9.93
X-20.268Y-12.47
X-20.268Y-15.01
X-20.268Y-17.55
X-20.268Y-20.09
X-17.855Y-17.423
X-17.855Y-19.963
X9.778Y17.477
X9.778Y15.115
X12.319Y17.477
X12.319Y15.115
X12.37Y12.765
X12.37Y10.225
X12.37Y7.685
X12.37Y5.145
X12.37Y2.605
X12.37Y0.065
X12.37Y-2.195
X12.37Y-4.735
X12.37Y-7.275
X12.37Y-9.815
X12.37Y-12.355
X12.37Y-14.895
X12.37Y-17.435
X12.37Y-19.975
T4
X-6.546Y-14.721
X-0.766Y-14.721
T5
X-7.207Y-16.548
X0.793Y-16.548
T2
G00X-7.975Y-14.041
M15
G01X-7.975Y-14.341
M16
G05
G00X-7.975Y-18.221
M15
G01X-7.975Y-18.521
M16
G05
G00X0.664Y-14.041
M15
G01X0.664Y-14.341
M16
G05
G00X0.664Y-18.221
M15
G01X0.664Y-18.521
M16
G05
T0
M30
